<?xml version="1.0" encoding="utf-8"?>
<!-- Generator: Adobe Illustrator 16.0.0, SVG Export Plug-In . SVG Version: 6.00 Build 0)  -->
<!DOCTYPE svg PUBLIC "-//W3C//DTD SVG 1.0//EN" "http://www.w3.org/TR/2001/REC-SVG-20010904/DTD/svg10.dtd">
<svg version="1.0" id="Ebene_1" xmlns="http://www.w3.org/2000/svg" xmlns:xlink="http://www.w3.org/1999/xlink" x="0px" y="0px"
	 width="150px" height="150px" viewBox="0 0 150 150" enable-background="new 0 0 150 150" xml:space="preserve">
<g>
	<g>
		<g enable-background="new    ">
			<g>
				<polygon fill="#7D0C03" points="1.535,151.164 -1.584,148.777 -1.242,-1.055 1.876,1.332 				"/>
			</g>
			<g>
				<polygon fill="#900D03" points="1.876,1.332 -1.242,-1.055 148.468,-1.161 151.587,1.226 				"/>
			</g>
			<g>
				<polygon fill="#D91405" points="151.587,1.226 151.245,151.058 1.535,151.164 1.876,1.332 				"/>
			</g>
		</g>
	</g>
</g>
<g>
	<g>
		<g enable-background="new    ">
			<g>
				<path fill="#400703" d="M23.949,30.114l1.908-2.052L23.949,30.114z"/>
			</g>
			<g enable-background="new    ">
				<defs>
					<path id="SVGID_1_" enable-background="new    " d="M25.857,28.062c-0.236,0.253-0.465,0.513-0.689,0.777
						C25.392,28.575,25.621,28.315,25.857,28.062z"/>
				</defs>
				<clipPath id="SVGID_2_">
					<use xlink:href="#SVGID_1_"  overflow="visible"/>
				</clipPath>
				<g clip-path="url(#SVGID_2_)" enable-background="new    ">
					<path fill="#430703" d="M25.857,28.062c-0.236,0.253-0.465,0.513-0.689,0.777C25.392,28.575,25.621,28.315,25.857,28.062"/>
				</g>
			</g>
			<g enable-background="new    ">
				<defs>
					<path id="SVGID_3_" enable-background="new    " d="M63.756,42.585L63.756,42.585c0-11.768-9.68-21.354-21.681-21.453
						C54.076,21.23,63.756,30.817,63.756,42.585z"/>
				</defs>
				<clipPath id="SVGID_4_">
					<use xlink:href="#SVGID_3_"  overflow="visible"/>
				</clipPath>
				<g clip-path="url(#SVGID_4_)" enable-background="new    ">
					<path fill="#7A0D06" d="M42.075,21.132c0.204,0.001,0.407,0.006,0.61,0.013C42.482,21.138,42.279,21.133,42.075,21.132"/>
					<path fill="#7E0E06" d="M42.686,21.145c1.147,0.041,2.272,0.167,3.369,0.375C44.958,21.313,43.833,21.186,42.686,21.145"/>
					<path fill="#830E06" d="M46.054,21.52c1.189,0.225,2.344,0.545,3.456,0.951C48.398,22.065,47.243,21.745,46.054,21.52"/>
					<path fill="#870F06" d="M49.51,22.471c1.417,0.518,2.765,1.175,4.025,1.955C52.274,23.646,50.927,22.988,49.51,22.471"/>
					<path fill="#8C0F06" d="M53.535,24.426c3.872,2.396,6.924,5.953,8.651,10.167C60.459,30.378,57.407,26.823,53.535,24.426"/>
					<path fill="#870F06" d="M62.187,34.593c0.539,1.315,0.949,2.695,1.214,4.123C63.135,37.288,62.726,35.908,62.187,34.593"/>
					<path fill="#830E06" d="M63.401,38.716c0.208,1.117,0.327,2.264,0.351,3.434C63.728,40.98,63.608,39.833,63.401,38.716"/>
					<path fill="#7E0E06" d="M63.752,42.149c0.003,0.145,0.004,0.29,0.004,0.436C63.756,42.439,63.755,42.294,63.752,42.149"/>
				</g>
			</g>
			<g enable-background="new    ">
				<defs>
					<path id="SVGID_5_" enable-background="new    " d="M38.567,21.381c1.088-0.164,2.203-0.25,3.338-0.25
						C40.771,21.131,39.656,21.217,38.567,21.381z"/>
				</defs>
				<clipPath id="SVGID_6_">
					<use xlink:href="#SVGID_5_"  overflow="visible"/>
				</clipPath>
				<g clip-path="url(#SVGID_6_)" enable-background="new    ">
					<path fill="#760D05" d="M38.567,21.381c0.211-0.032,0.423-0.061,0.636-0.086C38.99,21.32,38.778,21.349,38.567,21.381"/>
					<path fill="#7A0D06" d="M39.204,21.294c0.885-0.108,1.787-0.163,2.702-0.163C40.991,21.131,40.089,21.187,39.204,21.294"/>
				</g>
			</g>
			<g enable-background="new    ">
				<defs>
					<path id="SVGID_7_" enable-background="new    " d="M63.756,42.732c-0.071,11.779-9.808,21.259-21.781,21.259
						C53.948,63.991,63.685,54.511,63.756,42.732z"/>
				</defs>
				<clipPath id="SVGID_8_">
					<use xlink:href="#SVGID_7_"  overflow="visible"/>
				</clipPath>
				<g clip-path="url(#SVGID_8_)" enable-background="new    ">
					<path fill="#7E0E06" d="M63.756,42.732c-0.005,0.899-0.067,1.784-0.182,2.653C63.688,44.516,63.75,43.631,63.756,42.732"/>
					<path fill="#7A0D06" d="M63.574,45.385c-0.145,1.1-0.375,2.174-0.684,3.214C63.199,47.559,63.429,46.485,63.574,45.385"/>
					<path fill="#760D05" d="M62.89,48.599c-0.367,1.238-0.845,2.43-1.422,3.563C62.045,51.028,62.523,49.837,62.89,48.599"/>
					<path fill="#710C05" d="M61.468,52.162c-3.575,7.021-10.967,11.829-19.494,11.829C50.501,63.991,57.893,59.184,61.468,52.162"
						/>
				</g>
			</g>
			<g>
				<path fill="#BD1509" d="M42.075,21.132c12.051,0.099,21.762,9.765,21.681,21.6c-0.071,11.779-9.808,21.259-21.781,21.259
					c-0.057,0-0.113,0-0.169,0c-12.042-0.09-21.744-9.765-21.672-21.6c0.001-0.091,0.002-0.182,0.004-0.273
					c0.002-0.108,0.004-0.191,0.007-0.273c0.004-0.107,0.007-0.189,0.01-0.27c0.006-0.116,0.01-0.195,0.014-0.272
					c0.007-0.11,0.012-0.19,0.018-0.27c0.008-0.112,0.014-0.19,0.021-0.268c0.01-0.114,0.016-0.189,0.023-0.265
					c0.012-0.123,0.02-0.2,0.029-0.278c0.011-0.103,0.021-0.185,0.03-0.265c0.013-0.107,0.023-0.187,0.034-0.268
					c0.014-0.101,0.025-0.178,0.037-0.256c0.017-0.116,0.03-0.196,0.042-0.276c0.016-0.097,0.029-0.176,0.042-0.255
					c0.065-0.374,0.135-0.718,0.212-1.059c0.031-0.133,0.044-0.188,0.057-0.245c0.011-0.046,0.022-0.091,0.034-0.137
					c0.038-0.151,0.05-0.198,0.062-0.246c0.042-0.159,0.054-0.205,0.067-0.251c0.042-0.15,0.057-0.203,0.071-0.255
					c0.041-0.141,0.058-0.197,0.075-0.254c0.036-0.119,0.054-0.177,0.072-0.234c0.042-0.133,0.06-0.188,0.078-0.242
					c0.042-0.127,0.061-0.186,0.082-0.245c0.039-0.114,0.062-0.179,0.084-0.243c0.033-0.094,0.058-0.164,0.083-0.233
					c0.203-0.55,0.417-1.067,0.651-1.573c0.037-0.08,0.065-0.139,0.094-0.2c0.049-0.104,0.076-0.158,0.102-0.212
					c0.056-0.114,0.08-0.161,0.104-0.208c0.066-0.132,0.09-0.179,0.115-0.226c0.064-0.124,0.086-0.164,0.107-0.204
					c0.141-0.261,0.166-0.306,0.191-0.351c0.069-0.125,0.098-0.175,0.127-0.226c0.072-0.126,0.106-0.184,0.14-0.242
					c0.063-0.106,0.105-0.178,0.148-0.248c3.802-6.258,10.761-10.438,18.707-10.438C41.962,21.131,42.019,21.131,42.075,21.132z"/>
			</g>
			<g>
				<path fill="#6F0C05" d="M58.032,57.06c-0.32,0.342-0.637,0.684-0.954,1.026l-0.954,1.026c-0.208,0.223-0.423,0.441-0.642,0.655
					c-0.043,0.042-0.085,0.085-0.128,0.127c-0.083,0.08-0.167,0.157-0.25,0.236c-0.05,0.047-0.099,0.095-0.149,0.141
					c-0.089,0.081-0.179,0.161-0.27,0.241c-0.046,0.042-0.092,0.084-0.14,0.125c-0.085,0.074-0.172,0.147-0.258,0.22
					c-0.055,0.046-0.108,0.093-0.163,0.138c-0.079,0.065-0.159,0.129-0.238,0.193c-0.064,0.051-0.127,0.104-0.191,0.154
					c-0.081,0.063-0.163,0.125-0.244,0.188c-0.064,0.049-0.128,0.099-0.193,0.147c-0.078,0.058-0.157,0.114-0.235,0.171
					c-0.072,0.052-0.143,0.104-0.215,0.156c-0.075,0.054-0.152,0.105-0.229,0.158c-0.075,0.051-0.149,0.104-0.225,0.154
					c-0.088,0.06-0.178,0.117-0.268,0.175c-0.064,0.042-0.128,0.085-0.194,0.126c-0.087,0.056-0.176,0.109-0.265,0.164
					c-0.07,0.043-0.139,0.087-0.209,0.129c-0.079,0.047-0.158,0.092-0.237,0.139c-0.082,0.048-0.164,0.097-0.247,0.143
					c-0.074,0.042-0.149,0.083-0.224,0.124c-0.087,0.048-0.174,0.097-0.262,0.144c-0.08,0.043-0.161,0.084-0.242,0.125
					c-0.083,0.043-0.167,0.087-0.251,0.13c-0.085,0.042-0.171,0.083-0.257,0.125c-0.082,0.04-0.163,0.08-0.245,0.118
					c-0.087,0.041-0.176,0.08-0.264,0.12c-0.082,0.037-0.164,0.075-0.246,0.111c-0.086,0.038-0.173,0.074-0.26,0.11
					s-0.172,0.074-0.259,0.109c-0.085,0.035-0.172,0.068-0.258,0.102c-0.088,0.035-0.175,0.07-0.264,0.103
					c-0.092,0.035-0.185,0.068-0.278,0.102c-0.083,0.03-0.166,0.061-0.25,0.09c-0.093,0.032-0.187,0.063-0.28,0.094
					c-0.086,0.029-0.172,0.058-0.259,0.086c-0.095,0.031-0.19,0.059-0.286,0.088c-0.084,0.026-0.168,0.052-0.253,0.077
					c-0.094,0.027-0.188,0.053-0.282,0.08c-0.091,0.025-0.182,0.051-0.273,0.075c-0.092,0.024-0.185,0.047-0.278,0.07
					c-0.09,0.022-0.18,0.045-0.271,0.067c-0.099,0.024-0.199,0.045-0.299,0.067c-0.087,0.02-0.174,0.039-0.261,0.058
					c-0.097,0.02-0.194,0.039-0.292,0.058c-0.092,0.018-0.184,0.036-0.276,0.053c-0.098,0.018-0.195,0.034-0.293,0.05
					c-0.091,0.015-0.182,0.031-0.273,0.045c-0.1,0.016-0.202,0.029-0.302,0.043c-0.092,0.013-0.183,0.026-0.274,0.038
					c-0.102,0.013-0.204,0.024-0.306,0.036c-0.09,0.011-0.18,0.021-0.271,0.031c-0.103,0.01-0.207,0.02-0.311,0.028
					c-0.092,0.008-0.184,0.017-0.276,0.024c-0.1,0.007-0.2,0.013-0.3,0.02c-0.097,0.006-0.194,0.013-0.292,0.018
					c-0.098,0.004-0.197,0.008-0.295,0.011c-0.1,0.004-0.199,0.007-0.299,0.01s-0.2,0.003-0.301,0.004
					c-0.125,0.001-0.25,0.003-0.375,0.002c-0.375-0.003-0.749-0.016-1.12-0.037C38.7,66,38.623,65.991,38.545,65.986
					c-0.291-0.02-0.582-0.042-0.869-0.072c-0.129-0.014-0.257-0.035-0.386-0.051c-0.234-0.029-0.469-0.057-0.701-0.093
					c-0.143-0.022-0.282-0.052-0.424-0.077c-0.215-0.039-0.432-0.074-0.645-0.119c-0.142-0.03-0.281-0.066-0.422-0.099
					c-0.21-0.048-0.422-0.094-0.63-0.148c-0.143-0.037-0.282-0.081-0.423-0.121c-0.202-0.057-0.404-0.111-0.603-0.173
					c-0.156-0.049-0.31-0.104-0.464-0.157c-0.182-0.062-0.365-0.12-0.544-0.186c-0.157-0.058-0.311-0.122-0.466-0.183
					c-0.173-0.068-0.347-0.133-0.518-0.206c-0.146-0.062-0.289-0.13-0.434-0.195c-0.177-0.08-0.356-0.157-0.53-0.241
					c-0.137-0.066-0.271-0.138-0.406-0.207c-0.176-0.089-0.354-0.176-0.527-0.27c-0.139-0.075-0.274-0.156-0.411-0.234
					c-0.166-0.095-0.333-0.187-0.497-0.286c-0.139-0.084-0.274-0.174-0.412-0.261c-0.156-0.099-0.313-0.195-0.466-0.298
					c-0.141-0.094-0.277-0.194-0.415-0.292c-0.145-0.102-0.292-0.202-0.434-0.308c-0.133-0.099-0.261-0.202-0.392-0.304
					c-0.144-0.111-0.289-0.221-0.429-0.336c-0.126-0.104-0.248-0.211-0.372-0.318c-0.138-0.118-0.277-0.234-0.412-0.355
					c-0.125-0.112-0.245-0.229-0.367-0.344c-0.129-0.122-0.26-0.242-0.386-0.366c-0.118-0.118-0.232-0.239-0.348-0.359
					c-0.124-0.128-0.249-0.254-0.369-0.385c-0.114-0.125-0.224-0.254-0.335-0.381c-0.115-0.131-0.232-0.262-0.344-0.396
					c-0.108-0.129-0.211-0.263-0.317-0.396c-0.109-0.138-0.221-0.274-0.327-0.415c-0.102-0.135-0.199-0.273-0.298-0.411
					c-0.102-0.142-0.205-0.281-0.304-0.425c-0.097-0.142-0.188-0.288-0.282-0.432c-0.094-0.146-0.191-0.29-0.282-0.438
					c-0.089-0.146-0.174-0.294-0.259-0.442c-0.088-0.15-0.177-0.3-0.261-0.453c-0.082-0.149-0.159-0.302-0.238-0.453
					c-0.081-0.156-0.163-0.311-0.24-0.469c-0.075-0.153-0.144-0.309-0.215-0.464c-0.074-0.161-0.149-0.32-0.219-0.483
					c-0.067-0.157-0.129-0.317-0.192-0.476c-0.065-0.164-0.132-0.327-0.194-0.492c-0.061-0.165-0.116-0.331-0.173-0.498
					c-0.056-0.164-0.114-0.327-0.166-0.493c-0.053-0.169-0.101-0.341-0.15-0.512c-0.048-0.167-0.098-0.333-0.142-0.502
					c-0.044-0.172-0.083-0.346-0.124-0.519c-0.04-0.171-0.082-0.341-0.117-0.514c-0.036-0.173-0.066-0.349-0.098-0.524
					c-0.032-0.176-0.065-0.351-0.092-0.528c-0.027-0.174-0.048-0.35-0.071-0.526c-0.023-0.181-0.048-0.361-0.066-0.543
					c-0.019-0.177-0.031-0.356-0.044-0.536c-0.014-0.181-0.029-0.361-0.039-0.543c-0.009-0.183-0.013-0.368-0.018-0.552
					c-0.005-0.229-0.014-0.457-0.013-0.687c0.027-5.535,2.196-10.557,5.724-14.328l1.908-2.052
					c-0.236,0.253-0.465,0.513-0.689,0.777c-0.072,0.085-0.14,0.173-0.211,0.259c-0.15,0.183-0.299,0.367-0.443,0.555
					c-0.079,0.103-0.154,0.207-0.231,0.311c-0.131,0.177-0.26,0.355-0.386,0.537c-0.077,0.111-0.151,0.223-0.226,0.335
					c-0.12,0.18-0.236,0.361-0.35,0.545c-0.04,0.063-0.083,0.124-0.121,0.188c-0.043,0.07-0.085,0.142-0.127,0.213
					c-0.19,0.328-0.219,0.378-0.247,0.429c-0.066,0.119-0.091,0.164-0.116,0.209c-0.075,0.138-0.096,0.177-0.116,0.215
					c-0.021,0.04-0.042,0.081-0.063,0.121c-0.068,0.13-0.092,0.178-0.116,0.225c-0.066,0.132-0.09,0.18-0.114,0.228
					c-0.059,0.12-0.085,0.174-0.111,0.229c-0.052,0.109-0.08,0.169-0.108,0.229c-0.135,0.292-0.254,0.569-0.369,0.848
					c-0.036,0.086-0.068,0.174-0.102,0.261c-0.061,0.152-0.123,0.305-0.18,0.459c-0.034,0.093-0.059,0.163-0.084,0.232
					c-0.034,0.095-0.055,0.156-0.076,0.218c-0.037,0.109-0.057,0.168-0.076,0.228c-0.04,0.122-0.058,0.176-0.075,0.23
					c-0.042,0.136-0.061,0.193-0.078,0.25c-0.036,0.12-0.052,0.175-0.069,0.233c-0.039,0.136-0.054,0.188-0.068,0.241
					c-0.04,0.144-0.052,0.19-0.064,0.236c-0.042,0.16-0.054,0.207-0.066,0.255c-0.037,0.149-0.048,0.194-0.059,0.24
					c-0.013,0.056-0.026,0.112-0.039,0.168c-0.036,0.154-0.048,0.233-0.065,0.31c-0.04,0.185-0.077,0.37-0.112,0.556
					c-0.015,0.081-0.034,0.16-0.048,0.241c-0.019,0.107-0.032,0.186-0.044,0.266c-0.012,0.072-0.02,0.126-0.028,0.181
					c-0.029,0.19-0.04,0.269-0.05,0.346c-0.014,0.103-0.024,0.184-0.034,0.264c-0.013,0.108-0.022,0.188-0.032,0.27
					c-0.038,0.375-0.044,0.451-0.051,0.526c-0.01,0.116-0.016,0.193-0.021,0.271c-0.008,0.114-0.013,0.194-0.018,0.273
					c-0.009,0.162-0.012,0.213-0.014,0.265c-0.005,0.119-0.008,0.2-0.011,0.282c-0.003,0.108-0.006,0.191-0.007,0.274
					c-0.002,0.116-0.003,0.207-0.004,0.298c-0.072,11.835,9.63,21.51,21.672,21.6c0.063,0,0.127,0,0.19,0
					c0.056,0,0.111-0.002,0.167-0.002c0.117,0,0.234-0.002,0.351-0.004c0.083-0.002,0.167-0.005,0.25-0.008
					c0.114-0.004,0.229-0.008,0.343-0.014c0.082-0.004,0.164-0.009,0.246-0.014c0.113-0.007,0.227-0.014,0.34-0.022
					c0.083-0.006,0.167-0.014,0.251-0.021c0.111-0.01,0.223-0.019,0.334-0.031c0.082-0.008,0.164-0.018,0.245-0.027
					c0.111-0.012,0.222-0.025,0.332-0.039c0.084-0.011,0.168-0.023,0.252-0.035c0.107-0.016,0.215-0.03,0.322-0.047
					c0.083-0.013,0.167-0.027,0.25-0.042c0.107-0.018,0.215-0.036,0.322-0.056c0.08-0.015,0.16-0.031,0.24-0.046
					c0.107-0.021,0.215-0.042,0.323-0.064c0.083-0.017,0.166-0.036,0.248-0.055c0.103-0.023,0.206-0.045,0.308-0.07
					c0.083-0.02,0.166-0.041,0.25-0.062c0.103-0.026,0.205-0.051,0.307-0.078c0.082-0.021,0.164-0.045,0.245-0.067
					c0.099-0.027,0.198-0.055,0.297-0.083c0.089-0.026,0.178-0.054,0.268-0.082c0.091-0.028,0.182-0.055,0.272-0.084
					c0.093-0.03,0.186-0.062,0.279-0.093c0.085-0.029,0.17-0.057,0.254-0.086c0.092-0.033,0.184-0.066,0.275-0.1
					c0.086-0.031,0.172-0.062,0.257-0.094c0.085-0.032,0.17-0.066,0.255-0.1c0.091-0.036,0.182-0.071,0.272-0.108
					c0.081-0.033,0.16-0.067,0.24-0.101c0.091-0.039,0.183-0.077,0.274-0.117c0.085-0.037,0.169-0.076,0.253-0.114
					c0.085-0.039,0.17-0.076,0.254-0.116c0.085-0.04,0.169-0.082,0.254-0.123c0.083-0.04,0.167-0.08,0.249-0.122
					c0.087-0.043,0.172-0.088,0.258-0.133c0.078-0.041,0.157-0.081,0.234-0.122c0.087-0.046,0.172-0.094,0.258-0.142
					c0.077-0.042,0.154-0.084,0.23-0.127c0.085-0.048,0.169-0.098,0.253-0.148c0.075-0.044,0.151-0.087,0.226-0.132
					c0.08-0.048,0.158-0.098,0.237-0.146s0.158-0.097,0.237-0.147c0.082-0.052,0.163-0.106,0.245-0.16
					c0.071-0.047,0.143-0.093,0.213-0.14c0.092-0.062,0.183-0.126,0.274-0.189c0.06-0.042,0.121-0.083,0.181-0.125
					c0.086-0.061,0.17-0.124,0.255-0.186c0.064-0.047,0.129-0.093,0.193-0.141c0.079-0.059,0.156-0.12,0.234-0.18
					c0.068-0.052,0.137-0.103,0.204-0.156c0.085-0.067,0.169-0.136,0.253-0.205c0.057-0.046,0.115-0.092,0.172-0.139
					c0.099-0.083,0.197-0.167,0.295-0.251c0.041-0.035,0.083-0.069,0.123-0.105c0.096-0.083,0.189-0.169,0.284-0.254
					c0.042-0.038,0.085-0.076,0.127-0.114c0.094-0.086,0.188-0.175,0.28-0.264c0.04-0.038,0.081-0.075,0.121-0.114
					c0.076-0.074,0.151-0.15,0.227-0.225c0.055-0.055,0.111-0.108,0.166-0.164C57.782,57.325,57.908,57.193,58.032,57.06z"/>
			</g>
		</g>
	</g>
</g>
<g>
	<g>
		<g enable-background="new    ">
			<g enable-background="new    ">
				<defs>
					<path id="SVGID_9_" enable-background="new    " d="M82.152,44.573c0-0.044,0-0.087,0-0.131
						C82.152,44.486,82.152,44.529,82.152,44.573z"/>
				</defs>
				<clipPath id="SVGID_10_">
					<use xlink:href="#SVGID_9_"  overflow="visible"/>
				</clipPath>
				<g clip-path="url(#SVGID_10_)" enable-background="new    ">
					<path fill="#430703" d="M82.152,44.573c0-0.044,0-0.087,0-0.131C82.152,44.486,82.152,44.529,82.152,44.573"/>
				</g>
			</g>
			<g enable-background="new    ">
				<defs>
					<path id="SVGID_11_" enable-background="new    " d="M89.793,28.062c-0.209,0.223-0.411,0.452-0.61,0.684
						C89.382,28.514,89.584,28.285,89.793,28.062z"/>
				</defs>
				<clipPath id="SVGID_12_">
					<use xlink:href="#SVGID_11_"  overflow="visible"/>
				</clipPath>
				<g clip-path="url(#SVGID_12_)" enable-background="new    ">
					<path fill="#430703" d="M89.793,28.062c-0.209,0.223-0.411,0.452-0.61,0.684C89.382,28.514,89.584,28.285,89.793,28.062"/>
				</g>
			</g>
			<g enable-background="new    ">
				<defs>
					<path id="SVGID_13_" enable-background="new    " d="M89.183,28.746c-0.062,0.072-0.121,0.146-0.182,0.219
						C89.062,28.893,89.121,28.818,89.183,28.746z"/>
				</defs>
				<clipPath id="SVGID_14_">
					<use xlink:href="#SVGID_13_"  overflow="visible"/>
				</clipPath>
				<g clip-path="url(#SVGID_14_)" enable-background="new    ">
					<path fill="#430703" d="M89.183,28.746c-0.062,0.072-0.121,0.146-0.182,0.219C89.062,28.893,89.121,28.818,89.183,28.746"/>
				</g>
			</g>
			<g enable-background="new    ">
				<defs>
					<path id="SVGID_15_" enable-background="new    " d="M127.692,42.603L127.692,42.603c0-11.776-9.675-21.372-21.682-21.471
						C118.018,21.23,127.692,30.827,127.692,42.603z"/>
				</defs>
				<clipPath id="SVGID_16_">
					<use xlink:href="#SVGID_15_"  overflow="visible"/>
				</clipPath>
				<g clip-path="url(#SVGID_16_)" enable-background="new    ">
					<path fill="#7A0D06" d="M106.011,21.132c0.204,0.001,0.407,0.006,0.61,0.013C106.418,21.138,106.215,21.133,106.011,21.132"/>
					<path fill="#7E0E06" d="M106.621,21.145c1.147,0.041,2.272,0.167,3.367,0.375C108.894,21.313,107.769,21.186,106.621,21.145"/>
					<path fill="#830E06" d="M109.988,21.52c1.189,0.225,2.343,0.544,3.454,0.95C112.331,22.064,111.178,21.745,109.988,21.52"/>
					<path fill="#870F06" d="M113.442,22.47c1.417,0.517,2.764,1.174,4.023,1.954C116.206,23.645,114.859,22.987,113.442,22.47"/>
					<path fill="#8C0F06" d="M117.466,24.424c3.874,2.397,6.927,5.955,8.654,10.172C124.393,30.379,121.34,26.822,117.466,24.424"/>
					<path fill="#870F06" d="M126.12,34.596c0.54,1.317,0.951,2.7,1.217,4.13C127.071,37.296,126.66,35.914,126.12,34.596"/>
					<path fill="#830E06" d="M127.337,38.727c0.206,1.111,0.326,2.252,0.351,3.415C127.663,40.979,127.543,39.838,127.337,38.727"/>
					<path fill="#7E0E06" d="M127.688,42.142c0.004,0.153,0.005,0.307,0.005,0.461C127.692,42.448,127.691,42.295,127.688,42.142"/>
				</g>
			</g>
			<g>
				<path fill="#BD1509" d="M106.011,21.132c12.051,0.099,21.753,9.765,21.682,21.6c-0.039,5.649-2.298,10.77-5.958,14.569
					c-1.18,1.225-2.507,2.313-3.951,3.237c-0.133,0.084-0.174,0.11-0.214,0.135c-0.046,0.029-0.092,0.057-0.138,0.085
					c-0.131,0.08-0.189,0.115-0.248,0.15c-3.319,1.966-7.163,3.083-11.273,3.083c-0.056,0-0.112,0-0.169,0
					c-12.042-0.09-21.744-9.765-21.672-21.6c0-0.091,0.001-0.182,0.003-0.273c0.003-0.108,0.005-0.193,0.008-0.277
					c0.003-0.094,0.006-0.182,0.01-0.27c0.005-0.106,0.01-0.19,0.015-0.273c0.006-0.103,0.012-0.188,0.018-0.273
					c0.007-0.097,0.014-0.183,0.021-0.269c0.009-0.101,0.017-0.186,0.024-0.271c1.058-10.886,10.375-19.354,21.675-19.354
					C105.898,21.131,105.954,21.131,106.011,21.132z"/>
			</g>
			<g>
				<path fill="#6F0C05" d="M119.948,58.957c0.641-0.533,1.23-1.078,1.786-1.655l-1.684,1.811c-0.208,0.222-0.422,0.439-0.639,0.652
					c-0.044,0.043-0.087,0.087-0.131,0.13c-0.081,0.078-0.163,0.154-0.244,0.23c-0.053,0.049-0.104,0.098-0.156,0.146
					c-0.069,0.064-0.141,0.126-0.212,0.19c-0.066,0.06-0.133,0.12-0.2,0.179c-0.071,0.063-0.144,0.123-0.216,0.184
					c-0.067,0.057-0.134,0.115-0.201,0.171c-0.076,0.063-0.153,0.125-0.229,0.186c-0.067,0.054-0.133,0.108-0.2,0.162
					c-0.09,0.071-0.181,0.14-0.271,0.209c-0.055,0.041-0.107,0.083-0.162,0.124c-0.082,0.062-0.166,0.122-0.249,0.182
					c-0.067,0.049-0.135,0.099-0.203,0.147c-0.073,0.052-0.147,0.102-0.222,0.153c-0.077,0.053-0.153,0.107-0.23,0.159
					c-0.08,0.054-0.161,0.106-0.242,0.158c-0.074,0.048-0.147,0.098-0.222,0.145c-0.085,0.054-0.171,0.106-0.257,0.159
					c-0.07,0.044-0.141,0.088-0.212,0.131c-0.081,0.049-0.164,0.096-0.245,0.144c-0.081,0.047-0.16,0.094-0.241,0.14
					c-0.068,0.039-0.138,0.076-0.207,0.114c-0.093,0.052-0.187,0.104-0.281,0.154c-0.076,0.041-0.153,0.08-0.23,0.12
					c-0.086,0.044-0.172,0.089-0.259,0.133c-0.089,0.045-0.18,0.088-0.27,0.132c-0.077,0.037-0.154,0.075-0.231,0.112
					c-0.091,0.042-0.184,0.083-0.275,0.125c-0.078,0.036-0.155,0.072-0.234,0.106c-0.087,0.039-0.175,0.075-0.263,0.112
					c-0.086,0.037-0.172,0.073-0.258,0.108c-0.083,0.034-0.167,0.066-0.251,0.099c-0.09,0.036-0.18,0.072-0.271,0.106
					c-0.095,0.036-0.189,0.07-0.284,0.104c-0.08,0.029-0.159,0.059-0.239,0.086c-0.097,0.034-0.195,0.067-0.294,0.1
					c-0.082,0.027-0.164,0.055-0.246,0.082c-0.096,0.031-0.191,0.06-0.288,0.089c-0.084,0.026-0.168,0.052-0.253,0.077
					c-0.093,0.027-0.188,0.053-0.281,0.079c-0.09,0.025-0.18,0.051-0.271,0.075c-0.094,0.025-0.188,0.048-0.283,0.072
					c-0.088,0.022-0.176,0.044-0.265,0.066c-0.101,0.024-0.202,0.046-0.304,0.068c-0.086,0.019-0.171,0.039-0.257,0.057
					c-0.098,0.021-0.196,0.039-0.295,0.059c-0.091,0.018-0.182,0.036-0.272,0.052c-0.1,0.018-0.199,0.035-0.299,0.051
					c-0.089,0.015-0.178,0.031-0.267,0.044c-0.103,0.016-0.205,0.03-0.308,0.045c-0.09,0.013-0.18,0.026-0.271,0.037
					c-0.103,0.013-0.205,0.025-0.309,0.037c-0.089,0.01-0.178,0.021-0.268,0.03c-0.104,0.01-0.209,0.02-0.314,0.029
					c-0.091,0.008-0.182,0.016-0.272,0.023c-0.101,0.007-0.202,0.014-0.303,0.02c-0.096,0.006-0.192,0.012-0.289,0.017
					c-0.099,0.005-0.198,0.008-0.298,0.012c-0.099,0.004-0.197,0.007-0.296,0.01c-0.101,0.002-0.201,0.003-0.302,0.004
					c-0.125,0.001-0.25,0.003-0.375,0.002c-12.042-0.099-21.753-9.765-21.681-21.6c0.036-5.526,2.205-10.557,5.732-14.328
					c0.64-0.684,1.27-1.368,1.908-2.052c-0.209,0.223-0.411,0.452-0.61,0.684c-0.062,0.072-0.121,0.146-0.182,0.219
					c-0.135,0.162-0.27,0.325-0.399,0.491c-0.07,0.089-0.138,0.18-0.207,0.271c-0.116,0.154-0.232,0.308-0.345,0.465
					c-0.07,0.097-0.139,0.195-0.207,0.293c-0.107,0.156-0.214,0.313-0.317,0.472c-0.065,0.1-0.131,0.201-0.194,0.302
					c-0.103,0.163-0.203,0.327-0.301,0.492c-0.06,0.1-0.118,0.198-0.176,0.299c-0.103,0.179-0.201,0.361-0.299,0.543
					c-0.047,0.089-0.096,0.177-0.142,0.266c-0.115,0.224-0.227,0.451-0.334,0.679c-0.023,0.05-0.05,0.1-0.073,0.151
					c-0.132,0.285-0.257,0.574-0.376,0.866c-0.016,0.038-0.029,0.076-0.044,0.114c-0.101,0.25-0.197,0.501-0.288,0.755
					c-0.032,0.089-0.061,0.18-0.092,0.269c-0.069,0.205-0.139,0.41-0.202,0.618c-0.033,0.107-0.063,0.214-0.095,0.322
					c-0.057,0.195-0.111,0.391-0.163,0.588c-0.029,0.113-0.058,0.228-0.085,0.341c-0.047,0.194-0.091,0.39-0.133,0.586
					c-0.024,0.116-0.049,0.233-0.071,0.35c-0.039,0.201-0.074,0.404-0.107,0.607c-0.019,0.112-0.038,0.223-0.055,0.336
					c-0.032,0.225-0.061,0.451-0.086,0.678c-0.011,0.091-0.023,0.182-0.033,0.274c-0.018,0.177-0.025,0.261-0.033,0.347
					c-0.008,0.102-0.015,0.187-0.021,0.273c-0.007,0.096-0.013,0.182-0.018,0.268c-0.009,0.157-0.012,0.212-0.014,0.268
					c-0.006,0.11-0.009,0.198-0.012,0.286c-0.003,0.09-0.005,0.174-0.007,0.259c-0.003,0.114-0.004,0.205-0.004,0.296
					c-0.072,11.835,9.63,21.51,21.672,21.6c0.063,0,0.127,0,0.19,0c0.294-0.003,0.475-0.006,0.654-0.011
					c0.064-0.002,0.129-0.003,0.193-0.006c0.203-0.008,0.406-0.018,0.607-0.031c0.324-0.021,0.56-0.042,0.795-0.065
					c0.308-0.033,0.499-0.056,0.689-0.082c0.06-0.008,0.12-0.017,0.181-0.025c0.179-0.025,0.357-0.053,0.534-0.083
					c0.052-0.008,0.104-0.017,0.154-0.025c0.455-0.079,0.904-0.172,1.35-0.278c0.049-0.012,0.097-0.024,0.146-0.036
					c0.175-0.043,0.348-0.088,0.521-0.135c0.056-0.015,0.111-0.03,0.167-0.046c0.186-0.052,0.371-0.107,0.554-0.164
					c0.313-0.097,0.529-0.169,0.745-0.245c0.267-0.095,0.45-0.163,0.633-0.233c0.051-0.019,0.101-0.039,0.15-0.059
					c0.166-0.065,0.332-0.133,0.496-0.202c0.045-0.019,0.09-0.038,0.135-0.057c0.415-0.178,0.822-0.369,1.223-0.571
					c0.037-0.019,0.073-0.037,0.109-0.056c0.162-0.083,0.322-0.167,0.481-0.254c0.048-0.026,0.095-0.052,0.143-0.078
					c0.165-0.091,0.328-0.185,0.49-0.28c0.147-0.086,0.193-0.114,0.24-0.142c0.155-0.095,0.201-0.123,0.247-0.151
					c0.417-0.268,0.555-0.358,0.69-0.45c0.063-0.042,0.123-0.084,0.185-0.127c0.1-0.069,0.2-0.14,0.3-0.211
					c0.072-0.053,0.146-0.105,0.218-0.159c0.082-0.061,0.164-0.122,0.245-0.183c0.087-0.066,0.174-0.132,0.26-0.2
					c0.054-0.042,0.108-0.085,0.162-0.129C119.735,59.129,119.843,59.044,119.948,58.957z"/>
			</g>
		</g>
	</g>
</g>
<g>
	<g>
		<g enable-background="new    ">
			<g>
				<path fill="#400703" d="M87.885,88.866l1.908-2.052L87.885,88.866z"/>
			</g>
			<g enable-background="new    ">
				<defs>
					<path id="SVGID_17_" enable-background="new    " d="M84.069,101.142c0,0.043-0.001,0.086-0.001,0.129
						C84.068,101.228,84.069,101.185,84.069,101.142z"/>
				</defs>
				<clipPath id="SVGID_18_">
					<use xlink:href="#SVGID_17_"  overflow="visible"/>
				</clipPath>
				<g clip-path="url(#SVGID_18_)" enable-background="new    ">
					<path fill="#4A0803" d="M84.069,101.142c0,0.044-0.001,0.088-0.001,0.132l0,0C84.068,101.229,84.069,101.186,84.069,101.142"/>
				</g>
			</g>
			<g enable-background="new    ">
				<defs>
					<path id="SVGID_19_" enable-background="new    " d="M84.068,101.273c0-0.044,0.001-0.088,0.001-0.132
						C84.069,101.186,84.068,101.229,84.068,101.273z"/>
				</defs>
				<clipPath id="SVGID_20_">
					<use xlink:href="#SVGID_19_"  overflow="visible"/>
				</clipPath>
				<g clip-path="url(#SVGID_20_)" enable-background="new    ">
					<path fill="#710C05" d="M84.068,101.273c0-0.044,0.001-0.088,0.001-0.132C84.069,101.186,84.068,101.229,84.068,101.273"/>
				</g>
			</g>
			<g>
				<path fill="#BD1509" d="M106.011,79.884c12.051,0.1,21.753,9.766,21.682,21.601c-0.081,11.788-9.809,21.258-21.781,21.258
					c-0.057,0-0.113,0-0.17,0c-12.042-0.1-21.744-9.756-21.672-21.601c0-0.091,0.001-0.182,0.003-0.272
					c0.003-0.107,0.005-0.192,0.008-0.276c0.003-0.095,0.006-0.183,0.01-0.271c0.005-0.105,0.01-0.189,0.015-0.272
					c0.006-0.103,0.012-0.188,0.018-0.273c0.007-0.097,0.014-0.183,0.021-0.269c0.009-0.101,0.017-0.187,0.024-0.271
					c1.058-10.887,10.375-19.354,21.675-19.354C105.898,79.884,105.954,79.884,106.011,79.884z"/>
			</g>
			<g>
				<path fill="#6F0C05" d="M121.589,116.215c0.128-0.13,0.254-0.261,0.379-0.394l-1.917,2.043
					c-0.126,0.134-0.253,0.267-0.382,0.397c-0.03,0.031-0.063,0.062-0.094,0.093c-0.097,0.098-0.194,0.196-0.294,0.292
					c-0.081,0.078-0.163,0.154-0.244,0.23c-0.053,0.049-0.104,0.099-0.156,0.146c-0.092,0.084-0.185,0.166-0.277,0.249
					c-0.044,0.039-0.087,0.079-0.131,0.117c-0.106,0.093-0.213,0.183-0.321,0.273c-0.032,0.027-0.063,0.055-0.096,0.082
					c-0.103,0.085-0.207,0.168-0.311,0.251c-0.04,0.031-0.079,0.064-0.119,0.096c-0.099,0.078-0.199,0.154-0.3,0.23
					c-0.046,0.035-0.091,0.071-0.138,0.105c-0.092,0.069-0.186,0.137-0.278,0.203c-0.057,0.041-0.112,0.083-0.17,0.124
					c-0.096,0.067-0.192,0.134-0.289,0.2c-0.055,0.037-0.108,0.075-0.163,0.112c-0.088,0.059-0.177,0.116-0.266,0.174
					c-0.067,0.044-0.135,0.089-0.202,0.132c-0.086,0.055-0.174,0.107-0.261,0.161c-0.069,0.043-0.138,0.087-0.208,0.128
					c-0.087,0.053-0.177,0.104-0.265,0.155c-0.072,0.042-0.145,0.085-0.217,0.126c-0.084,0.048-0.169,0.094-0.253,0.14
					c-0.078,0.043-0.156,0.087-0.235,0.129c-0.086,0.046-0.173,0.09-0.26,0.135c-0.077,0.04-0.155,0.081-0.233,0.121
					c-0.083,0.041-0.166,0.08-0.249,0.121c-0.086,0.041-0.172,0.084-0.258,0.124c-0.077,0.037-0.156,0.071-0.233,0.106
					c-0.092,0.042-0.184,0.085-0.276,0.125c-0.079,0.034-0.158,0.068-0.238,0.102c-0.093,0.039-0.185,0.079-0.278,0.117
					c-0.078,0.032-0.157,0.063-0.236,0.094c-0.097,0.038-0.192,0.076-0.289,0.113c-0.081,0.03-0.163,0.06-0.244,0.089
					c-0.094,0.034-0.187,0.068-0.28,0.102c-0.086,0.029-0.172,0.059-0.258,0.087c-0.095,0.032-0.188,0.063-0.283,0.094
					c-0.077,0.025-0.156,0.049-0.234,0.073c-0.104,0.031-0.207,0.064-0.312,0.095c-0.076,0.021-0.152,0.042-0.228,0.063
					c-0.106,0.03-0.213,0.06-0.32,0.088c-0.076,0.021-0.154,0.039-0.231,0.059c-0.107,0.027-0.215,0.055-0.323,0.081
					c-0.078,0.019-0.157,0.035-0.235,0.053c-0.108,0.024-0.217,0.049-0.325,0.071c-0.076,0.017-0.152,0.031-0.229,0.046
					c-0.112,0.022-0.225,0.045-0.338,0.065c-0.077,0.014-0.154,0.026-0.231,0.04c-0.111,0.019-0.223,0.038-0.334,0.056
					c-0.082,0.012-0.164,0.023-0.246,0.035c-0.111,0.016-0.222,0.032-0.333,0.046c-0.077,0.011-0.154,0.019-0.231,0.027
					c-0.117,0.014-0.234,0.028-0.352,0.04c-0.074,0.008-0.149,0.014-0.225,0.021c-0.12,0.011-0.241,0.021-0.362,0.031
					c-0.075,0.005-0.151,0.01-0.227,0.015c-0.119,0.008-0.239,0.016-0.359,0.021c-0.075,0.003-0.151,0.006-0.227,0.009
					c-0.125,0.005-0.249,0.01-0.374,0.012c-0.071,0.002-0.143,0.002-0.214,0.003c-0.146,0.002-0.293,0.004-0.44,0.003
					c-12.042-0.099-21.753-9.756-21.681-21.6c0.036-5.535,2.205-10.558,5.732-14.328l1.908-2.052
					c-0.209,0.224-0.412,0.452-0.61,0.685c-0.061,0.07-0.118,0.144-0.179,0.215c-0.137,0.164-0.272,0.329-0.404,0.497
					c-0.067,0.086-0.133,0.173-0.198,0.26c-0.121,0.158-0.24,0.317-0.355,0.479c-0.067,0.094-0.133,0.188-0.198,0.282
					c-0.11,0.159-0.22,0.32-0.325,0.482c-0.063,0.098-0.127,0.194-0.188,0.293c-0.106,0.168-0.209,0.337-0.311,0.509
					c-0.056,0.094-0.111,0.187-0.165,0.281c-0.106,0.185-0.209,0.373-0.31,0.562c-0.044,0.083-0.09,0.166-0.134,0.25
					c-0.118,0.229-0.231,0.461-0.341,0.694c-0.021,0.046-0.045,0.091-0.066,0.138c-0.132,0.286-0.258,0.575-0.378,0.868
					c-0.142,0.355-0.239,0.612-0.332,0.871c-0.03,0.085-0.058,0.172-0.088,0.258c-0.071,0.208-0.141,0.418-0.206,0.629
					c-0.032,0.104-0.063,0.211-0.093,0.316c-0.058,0.195-0.112,0.393-0.164,0.591c-0.029,0.113-0.058,0.227-0.085,0.341
					c-0.047,0.194-0.091,0.39-0.133,0.586c-0.024,0.116-0.049,0.233-0.071,0.351c-0.039,0.2-0.074,0.402-0.107,0.605
					c-0.019,0.112-0.038,0.225-0.055,0.337c-0.032,0.224-0.06,0.449-0.086,0.675c-0.011,0.093-0.023,0.185-0.033,0.278
					c-0.018,0.176-0.025,0.261-0.033,0.346c-0.008,0.102-0.015,0.187-0.021,0.273c-0.007,0.096-0.013,0.182-0.018,0.268
					c-0.009,0.156-0.012,0.212-0.014,0.267c-0.006,0.11-0.009,0.198-0.012,0.286c-0.003,0.091-0.005,0.175-0.007,0.26
					c-0.003,0.114-0.004,0.205-0.004,0.296c-0.072,11.845,9.63,21.501,21.672,21.601c0.063,0,0.127,0.001,0.19,0.001
					c0.08,0,0.158-0.002,0.238-0.003c0.082-0.001,0.165-0.002,0.248-0.004c0.118-0.002,0.235-0.006,0.354-0.011
					c0.08-0.003,0.16-0.006,0.239-0.01c0.118-0.005,0.235-0.013,0.353-0.021c0.079-0.005,0.157-0.01,0.235-0.016
					c0.114-0.008,0.229-0.019,0.344-0.028c0.082-0.008,0.165-0.015,0.248-0.023c0.11-0.011,0.22-0.023,0.33-0.036
					c0.082-0.01,0.165-0.02,0.247-0.029c0.112-0.015,0.224-0.031,0.336-0.047c0.08-0.012,0.159-0.022,0.239-0.035
					c0.114-0.018,0.229-0.037,0.344-0.057c0.073-0.013,0.147-0.024,0.222-0.038c0.115-0.021,0.229-0.043,0.343-0.065
					c0.076-0.016,0.151-0.03,0.227-0.046c0.107-0.022,0.214-0.046,0.32-0.07c0.082-0.018,0.164-0.036,0.245-0.056
					c0.104-0.024,0.207-0.051,0.311-0.076c0.08-0.021,0.16-0.04,0.24-0.062c0.106-0.027,0.212-0.058,0.317-0.087
					c0.077-0.021,0.154-0.043,0.23-0.065c0.104-0.03,0.206-0.062,0.309-0.094c0.079-0.024,0.159-0.048,0.237-0.073
					c0.101-0.032,0.2-0.066,0.3-0.1c0.078-0.026,0.157-0.052,0.234-0.079c0.099-0.034,0.197-0.071,0.295-0.106
					c0.079-0.029,0.159-0.058,0.238-0.088c0.092-0.034,0.183-0.07,0.273-0.106c0.085-0.034,0.17-0.066,0.254-0.101
					c0.08-0.033,0.16-0.067,0.24-0.102c0.094-0.039,0.188-0.078,0.28-0.119c0.074-0.033,0.147-0.067,0.222-0.101
					c0.096-0.043,0.191-0.086,0.287-0.131c0.076-0.035,0.151-0.073,0.227-0.109c0.091-0.044,0.182-0.087,0.271-0.133
					c0.075-0.038,0.15-0.077,0.227-0.116c0.091-0.047,0.183-0.094,0.272-0.142c0.061-0.032,0.121-0.066,0.181-0.099
					c0.104-0.057,0.208-0.113,0.311-0.172c0.054-0.03,0.107-0.063,0.161-0.094c0.105-0.061,0.211-0.122,0.315-0.185
					c0.052-0.031,0.104-0.064,0.155-0.096c0.106-0.065,0.213-0.13,0.318-0.197c0.042-0.026,0.082-0.054,0.123-0.081
					c0.114-0.073,0.228-0.146,0.34-0.222c0.038-0.026,0.076-0.053,0.114-0.079c0.113-0.077,0.227-0.154,0.338-0.233
					c0.043-0.03,0.085-0.063,0.128-0.093c0.106-0.076,0.212-0.153,0.316-0.231c0.039-0.028,0.076-0.059,0.115-0.087
					c0.108-0.083,0.217-0.166,0.324-0.25c0.188-0.15,0.309-0.247,0.428-0.346c0.167-0.14,0.294-0.247,0.418-0.356
					c0.146-0.128,0.278-0.245,0.408-0.364c0.154-0.144,0.276-0.258,0.396-0.374c0.033-0.032,0.065-0.065,0.1-0.098
					C121.396,116.407,121.493,116.313,121.589,116.215z"/>
			</g>
		</g>
	</g>
</g>
<g>
	<g>
		<g enable-background="new    ">
			<g enable-background="new    ">
				<defs>
					<path id="SVGID_21_" enable-background="new    " d="M20.133,101.142c0,0.043,0,0.086,0,0.129
						C20.132,101.228,20.132,101.185,20.133,101.142z"/>
				</defs>
				<clipPath id="SVGID_22_">
					<use xlink:href="#SVGID_21_"  overflow="visible"/>
				</clipPath>
				<g clip-path="url(#SVGID_22_)" enable-background="new    ">
					<path fill="#4A0803" d="M20.133,101.142c0,0.044,0,0.087,0,0.131C20.132,101.229,20.132,101.186,20.133,101.142"/>
				</g>
			</g>
			<g enable-background="new    ">
				<defs>
					<path id="SVGID_23_" enable-background="new    " d="M20.132,101.272c0-0.044,0-0.087,0-0.131
						C20.132,101.186,20.132,101.229,20.132,101.272z"/>
				</defs>
				<clipPath id="SVGID_24_">
					<use xlink:href="#SVGID_23_"  overflow="visible"/>
				</clipPath>
				<g clip-path="url(#SVGID_24_)" enable-background="new    ">
					<path fill="#710C05" d="M20.132,101.272c0-0.044,0-0.087,0-0.131C20.132,101.186,20.132,101.229,20.132,101.272"/>
				</g>
			</g>
			<g>
				<path fill="#BD1509" d="M42.075,79.884c12.051,0.1,21.762,9.766,21.681,21.601c-0.071,11.779-9.808,21.258-21.781,21.258
					c-0.057,0-0.113,0-0.169,0c-12.042-0.1-21.744-9.766-21.672-21.601c0.001-0.091,0.002-0.182,0.004-0.272
					c0.002-0.108,0.004-0.19,0.007-0.273c0.004-0.107,0.007-0.188,0.01-0.27c0.006-0.116,0.01-0.195,0.014-0.272
					c0.007-0.11,0.012-0.19,0.018-0.27c0.008-0.112,0.014-0.19,0.021-0.268c0.009-0.113,0.016-0.188,0.023-0.263
					c0.012-0.125,0.02-0.199,0.028-0.273c0.012-0.111,0.021-0.188,0.031-0.266c0.014-0.112,0.023-0.187,0.033-0.261
					c0.016-0.113,0.025-0.182,0.036-0.252c0.019-0.13,0.03-0.199,0.041-0.269c0.019-0.117,0.03-0.185,0.042-0.252
					c0.022-0.128,0.034-0.192,0.046-0.258c0.021-0.112,0.03-0.16,0.04-0.21c0.022-0.112,0.045-0.225,0.068-0.336
					c0.022-0.103,0.04-0.183,0.058-0.264c0.018-0.078,0.036-0.156,0.054-0.233c0.835-3.499,2.535-6.656,4.865-9.252
					c3.992-4.446,9.832-7.245,16.334-7.245C41.962,79.884,42.019,79.884,42.075,79.884z"/>
			</g>
			<g enable-background="new    ">
				<defs>
					<path id="SVGID_25_" enable-background="new    " d="M25.571,87.129c3.992-4.446,9.832-7.245,16.334-7.245
						C35.403,79.884,29.563,82.683,25.571,87.129z"/>
				</defs>
				<clipPath id="SVGID_26_">
					<use xlink:href="#SVGID_25_"  overflow="visible"/>
				</clipPath>
				<g clip-path="url(#SVGID_26_)" enable-background="new    ">
					<path fill="#710C05" d="M25.571,87.129c2.574-2.867,5.916-5.049,9.709-6.237C31.487,82.08,28.145,84.262,25.571,87.129"/>
					<path fill="#760D05" d="M35.28,80.892c1.261-0.396,2.571-0.681,3.92-0.845C37.852,80.211,36.541,80.496,35.28,80.892"/>
					<path fill="#7A0D06" d="M39.201,80.047c0.886-0.107,1.789-0.163,2.705-0.163C40.99,79.884,40.087,79.939,39.201,80.047"/>
				</g>
			</g>
			<g>
				<path fill="#6F0C05" d="M57.654,116.206c0.127-0.13,0.253-0.262,0.378-0.395l-1.908,2.053c-0.125,0.134-0.253,0.267-0.382,0.397
					c-0.032,0.033-0.065,0.065-0.098,0.098c-0.096,0.097-0.192,0.192-0.29,0.287c-0.083,0.08-0.167,0.158-0.25,0.236
					c-0.05,0.047-0.099,0.095-0.149,0.141c-0.126,0.116-0.255,0.23-0.384,0.344c-0.136,0.119-0.252,0.217-0.368,0.314
					c-0.18,0.15-0.287,0.236-0.394,0.321c-0.037,0.029-0.073,0.06-0.11,0.089c-0.09,0.071-0.182,0.141-0.273,0.21
					c-0.056,0.043-0.111,0.086-0.167,0.128c-0.088,0.066-0.177,0.13-0.266,0.194c-0.06,0.043-0.119,0.087-0.18,0.13
					c-0.098,0.069-0.197,0.137-0.295,0.205c-0.053,0.035-0.104,0.072-0.157,0.107c-0.096,0.064-0.193,0.128-0.291,0.19
					c-0.059,0.038-0.116,0.077-0.175,0.114c-0.089,0.057-0.179,0.111-0.269,0.166c-0.068,0.042-0.136,0.085-0.205,0.127
					c-0.085,0.051-0.172,0.101-0.258,0.15c-0.074,0.043-0.147,0.087-0.222,0.129c-0.09,0.051-0.181,0.101-0.272,0.15
					c-0.071,0.039-0.142,0.078-0.213,0.117c-0.089,0.047-0.179,0.093-0.269,0.139c-0.077,0.04-0.153,0.08-0.23,0.119
					c-0.078,0.039-0.158,0.076-0.236,0.114c-0.09,0.044-0.18,0.089-0.271,0.131c-0.074,0.034-0.147,0.067-0.222,0.101
					c-0.096,0.044-0.191,0.089-0.288,0.131c-0.078,0.034-0.156,0.066-0.234,0.1c-0.093,0.039-0.187,0.079-0.28,0.118
					c-0.081,0.032-0.162,0.063-0.244,0.096c-0.094,0.037-0.188,0.075-0.283,0.11c-0.079,0.03-0.159,0.059-0.239,0.088
					c-0.096,0.035-0.192,0.07-0.289,0.104c-0.081,0.028-0.163,0.055-0.244,0.082c-0.099,0.033-0.197,0.066-0.295,0.099
					c-0.077,0.024-0.155,0.048-0.232,0.071c-0.104,0.032-0.208,0.064-0.313,0.095c-0.076,0.022-0.152,0.043-0.229,0.064
					c-0.107,0.03-0.213,0.061-0.321,0.089c-0.075,0.02-0.151,0.038-0.226,0.058c-0.109,0.027-0.219,0.055-0.329,0.081
					c-0.077,0.019-0.155,0.035-0.232,0.052c-0.109,0.025-0.219,0.05-0.329,0.072c-0.075,0.016-0.151,0.03-0.226,0.045
					c-0.114,0.023-0.228,0.046-0.342,0.066c-0.075,0.014-0.151,0.026-0.227,0.039c-0.113,0.02-0.226,0.039-0.34,0.057
					c-0.08,0.012-0.16,0.023-0.24,0.034c-0.113,0.017-0.225,0.032-0.338,0.047c-0.076,0.01-0.152,0.019-0.229,0.027
					c-0.118,0.014-0.236,0.028-0.354,0.04c-0.074,0.007-0.147,0.014-0.221,0.021c-0.122,0.011-0.243,0.022-0.366,0.031
					c-0.075,0.005-0.149,0.01-0.224,0.015c-0.12,0.008-0.241,0.016-0.362,0.021c-0.075,0.003-0.15,0.006-0.225,0.009
					c-0.125,0.005-0.25,0.01-0.376,0.012c-0.071,0.002-0.142,0.002-0.213,0.003c-0.146,0.002-0.293,0.004-0.441,0.003
					c-0.375-0.003-0.747-0.016-1.116-0.037c-0.169-0.01-0.335-0.027-0.503-0.041c-0.2-0.017-0.4-0.028-0.599-0.05
					c-0.179-0.02-0.356-0.047-0.534-0.07c-0.184-0.024-0.37-0.045-0.552-0.074c-0.199-0.031-0.395-0.071-0.592-0.107
					c-0.158-0.029-0.317-0.055-0.474-0.087c-0.208-0.044-0.414-0.096-0.62-0.145c-0.143-0.034-0.288-0.064-0.429-0.102
					c-0.201-0.052-0.399-0.112-0.598-0.17c-0.144-0.042-0.289-0.08-0.432-0.124c-0.205-0.064-0.406-0.137-0.608-0.206
					c-0.132-0.046-0.266-0.088-0.397-0.136c-0.196-0.071-0.388-0.151-0.581-0.229c-0.135-0.054-0.272-0.104-0.406-0.16
					c-0.186-0.079-0.368-0.165-0.551-0.248c-0.136-0.063-0.273-0.121-0.408-0.186c-0.179-0.086-0.354-0.179-0.529-0.269
					c-0.136-0.069-0.272-0.136-0.406-0.208c-0.175-0.096-0.347-0.197-0.52-0.296c-0.128-0.074-0.259-0.146-0.386-0.223
					c-0.171-0.103-0.337-0.213-0.505-0.32c-0.125-0.08-0.252-0.157-0.375-0.239c-0.165-0.11-0.324-0.227-0.485-0.342
					c-0.121-0.086-0.245-0.17-0.364-0.258c-0.156-0.116-0.308-0.237-0.46-0.357c-0.12-0.094-0.242-0.185-0.359-0.281
					c-0.148-0.121-0.291-0.247-0.436-0.372c-0.117-0.101-0.235-0.199-0.35-0.303c-0.14-0.126-0.275-0.257-0.413-0.387
					c-0.113-0.108-0.229-0.214-0.34-0.324c-0.132-0.13-0.259-0.266-0.387-0.399c-0.11-0.115-0.223-0.228-0.33-0.345
					c-0.125-0.137-0.246-0.278-0.368-0.418c-0.104-0.119-0.21-0.237-0.312-0.358c-0.12-0.144-0.234-0.291-0.35-0.438
					c-0.098-0.124-0.198-0.246-0.293-0.372c-0.111-0.146-0.217-0.297-0.324-0.446c-0.094-0.131-0.19-0.26-0.281-0.394
					c-0.103-0.149-0.199-0.303-0.298-0.455c-0.089-0.138-0.18-0.273-0.266-0.413c-0.095-0.153-0.184-0.311-0.274-0.467
					c-0.083-0.143-0.168-0.284-0.248-0.43c-0.085-0.154-0.165-0.313-0.247-0.47c-0.078-0.15-0.158-0.3-0.232-0.453
					c-0.078-0.158-0.149-0.32-0.223-0.481c-0.071-0.154-0.143-0.308-0.21-0.465c-0.07-0.162-0.134-0.328-0.2-0.493
					c-0.063-0.158-0.128-0.315-0.188-0.476c-0.063-0.169-0.12-0.341-0.178-0.512c-0.054-0.159-0.11-0.317-0.161-0.479
					c-0.054-0.173-0.103-0.349-0.153-0.523c-0.047-0.163-0.096-0.326-0.139-0.491c-0.045-0.175-0.085-0.353-0.127-0.529
					c-0.039-0.167-0.079-0.334-0.114-0.502c-0.037-0.178-0.067-0.356-0.1-0.536c-0.031-0.172-0.063-0.344-0.091-0.517
					c-0.027-0.177-0.049-0.355-0.072-0.533c-0.023-0.179-0.047-0.357-0.065-0.537c-0.019-0.179-0.031-0.359-0.045-0.54
					c-0.014-0.18-0.029-0.358-0.038-0.539c-0.009-0.184-0.013-0.369-0.018-0.554c-0.005-0.229-0.014-0.456-0.013-0.686
					c0.027-5.535,2.196-10.558,5.724-14.328c0.536-0.574,1.072-1.148,1.608-1.722c-1.191,1.33-2.217,2.809-3.046,4.401
					c-0.144,0.277-0.279,0.553-0.409,0.832c-0.164,0.353-0.288,0.638-0.405,0.925c-0.129,0.32-0.229,0.582-0.323,0.846
					c-0.018,0.049-0.036,0.098-0.053,0.147c-0.099,0.28-0.192,0.563-0.279,0.849c-0.012,0.039-0.022,0.078-0.034,0.117
					c-0.074,0.246-0.142,0.495-0.207,0.745c-0.018,0.07-0.037,0.141-0.054,0.211c-0.013,0.051-0.027,0.102-0.039,0.152
					c-0.021,0.088-0.039,0.166-0.057,0.244c-0.019,0.081-0.036,0.161-0.054,0.243s-0.03,0.146-0.042,0.208
					c-0.04,0.198-0.049,0.246-0.059,0.296c-0.024,0.128-0.036,0.193-0.047,0.258c-0.022,0.13-0.034,0.197-0.044,0.266
					c-0.015,0.092-0.021,0.136-0.028,0.179c-0.031,0.208-0.042,0.278-0.051,0.348c-0.016,0.117-0.025,0.191-0.035,0.267
					c-0.014,0.114-0.023,0.191-0.031,0.27c-0.039,0.381-0.046,0.456-0.052,0.531c-0.01,0.115-0.016,0.193-0.021,0.271
					c-0.008,0.114-0.013,0.194-0.018,0.273c-0.009,0.162-0.012,0.214-0.014,0.266c-0.005,0.119-0.008,0.2-0.011,0.281
					c-0.003,0.109-0.006,0.191-0.007,0.274c-0.002,0.116-0.003,0.207-0.004,0.298c-0.072,11.835,9.63,21.501,21.672,21.601
					c0.063,0,0.127,0.001,0.19,0.001c0.08,0,0.159-0.002,0.238-0.003c0.083-0.001,0.166-0.002,0.248-0.004
					c0.118-0.002,0.236-0.006,0.354-0.011c0.08-0.003,0.16-0.006,0.239-0.01c0.118-0.005,0.236-0.013,0.353-0.021
					c0.078-0.005,0.156-0.009,0.234-0.015c0.12-0.009,0.239-0.021,0.359-0.031c0.075-0.007,0.151-0.013,0.227-0.021
					c0.119-0.012,0.238-0.025,0.357-0.04c0.074-0.009,0.147-0.017,0.221-0.026c0.119-0.015,0.236-0.031,0.354-0.049
					c0.076-0.011,0.151-0.021,0.227-0.033c0.11-0.017,0.22-0.035,0.33-0.054c0.081-0.015,0.163-0.027,0.244-0.042
					c0.11-0.021,0.219-0.042,0.328-0.063c0.079-0.016,0.157-0.03,0.235-0.047c0.113-0.023,0.226-0.049,0.339-0.074
					c0.073-0.017,0.146-0.032,0.218-0.05c0.113-0.026,0.226-0.055,0.339-0.084c0.073-0.018,0.146-0.036,0.218-0.055
					c0.11-0.029,0.22-0.061,0.33-0.091c0.073-0.021,0.146-0.041,0.22-0.063c0.105-0.03,0.21-0.063,0.315-0.095
					c0.077-0.024,0.154-0.048,0.231-0.072c0.101-0.032,0.201-0.066,0.301-0.1c0.08-0.027,0.159-0.053,0.238-0.081
					c0.099-0.034,0.196-0.07,0.294-0.105c0.078-0.029,0.156-0.058,0.234-0.087c0.095-0.035,0.189-0.073,0.283-0.11
					c0.082-0.032,0.163-0.063,0.244-0.097c0.088-0.036,0.175-0.074,0.263-0.111c0.085-0.036,0.171-0.071,0.256-0.109
					c0.085-0.037,0.169-0.076,0.253-0.114s0.169-0.076,0.253-0.115c0.092-0.043,0.183-0.088,0.274-0.133
					c0.075-0.036,0.15-0.072,0.225-0.109c0.088-0.044,0.175-0.09,0.262-0.135c0.08-0.042,0.161-0.083,0.24-0.125
					c0.08-0.043,0.158-0.087,0.237-0.131c0.082-0.045,0.165-0.089,0.246-0.136c0.08-0.045,0.158-0.092,0.237-0.138
					c0.083-0.048,0.165-0.096,0.247-0.145c0.071-0.043,0.14-0.087,0.21-0.13c0.086-0.054,0.174-0.106,0.259-0.161
					c0.075-0.048,0.149-0.097,0.224-0.146c0.079-0.052,0.159-0.104,0.238-0.156c0.075-0.051,0.149-0.103,0.224-0.154
					c0.077-0.054,0.154-0.105,0.23-0.16c0.078-0.055,0.154-0.111,0.23-0.168c0.072-0.052,0.144-0.104,0.214-0.156
					c0.063-0.047,0.125-0.096,0.187-0.144c0.086-0.065,0.173-0.131,0.258-0.198c0.042-0.033,0.083-0.068,0.126-0.102
					c0.099-0.08,0.198-0.159,0.295-0.24c0.061-0.051,0.122-0.104,0.182-0.155c0.08-0.067,0.16-0.135,0.239-0.204
					c0.047-0.042,0.094-0.085,0.142-0.127c0.089-0.079,0.178-0.158,0.266-0.238c0.055-0.051,0.107-0.102,0.161-0.152
					c0.08-0.075,0.16-0.149,0.239-0.226c0.045-0.044,0.089-0.089,0.135-0.134C57.485,116.375,57.57,116.292,57.654,116.206z"/>
			</g>
		</g>
	</g>
</g>
</svg>
