<?xml version="1.0" encoding="utf-8"?>
<!-- Generator: Adobe Illustrator 16.0.0, SVG Export Plug-In . SVG Version: 6.00 Build 0)  -->
<!DOCTYPE svg PUBLIC "-//W3C//DTD SVG 1.0//EN" "http://www.w3.org/TR/2001/REC-SVG-20010904/DTD/svg10.dtd">
<svg version="1.0" id="Ebene_1" xmlns="http://www.w3.org/2000/svg" xmlns:xlink="http://www.w3.org/1999/xlink" x="0px" y="0px"
	 width="150px" height="150px" viewBox="0 0 150 150" enable-background="new 0 0 150 150" xml:space="preserve">
<g>
	<g>
		<g enable-background="new    ">
			<g>
				<polygon fill="#03106F" points="1.535,151.164 -1.584,148.777 -1.242,-1.055 1.876,1.332 				"/>
			</g>
			<g>
				<polygon fill="#031280" points="1.876,1.332 -1.242,-1.055 148.468,-1.161 151.587,1.226 				"/>
			</g>
			<g>
				<polygon fill="#041BC1" points="151.587,1.226 151.245,151.058 1.535,151.164 1.876,1.332 				"/>
			</g>
		</g>
	</g>
</g>
<g>
	<g>
		<g enable-background="new    ">
			<g>
				<path fill="#02083A" d="M23.949,30.118l1.811-1.948L23.949,30.118z"/>
			</g>
			<g enable-background="new    ">
				<defs>
					<path id="SVGID_1_" enable-background="new    " d="M24.854,29.228c-0.112,0.139-0.225,0.278-0.334,0.419
						C24.629,29.505,24.742,29.367,24.854,29.228z"/>
				</defs>
				<clipPath id="SVGID_2_">
					<use xlink:href="#SVGID_1_"  overflow="visible"/>
				</clipPath>
				<g clip-path="url(#SVGID_2_)" enable-background="new    ">
					<path fill="#02083C" d="M24.854,29.228c-0.112,0.139-0.225,0.278-0.334,0.419C24.629,29.505,24.742,29.367,24.854,29.228"/>
				</g>
			</g>
			<g enable-background="new    ">
				<defs>
					<path id="SVGID_3_" enable-background="new    " d="M39.205,21.298c0.885-0.107,1.786-0.163,2.7-0.163
						C40.991,21.135,40.09,21.19,39.205,21.298z"/>
				</defs>
				<clipPath id="SVGID_4_">
					<use xlink:href="#SVGID_3_"  overflow="visible"/>
				</clipPath>
				<g clip-path="url(#SVGID_4_)" enable-background="new    ">
					<path fill="#020F6D" d="M39.205,21.298c0.885-0.107,1.786-0.163,2.7-0.163C40.991,21.135,40.09,21.19,39.205,21.298"/>
				</g>
			</g>
			<g enable-background="new    ">
				<defs>
					<path id="SVGID_5_" enable-background="new    " d="M42.075,21.136c12.051,0.099,21.762,9.756,21.681,21.6
						C63.837,30.892,54.126,21.235,42.075,21.136z"/>
				</defs>
				<clipPath id="SVGID_6_">
					<use xlink:href="#SVGID_5_"  overflow="visible"/>
				</clipPath>
				<g clip-path="url(#SVGID_6_)" enable-background="new    ">
					<path fill="#020F6D" d="M42.075,21.136c0.204,0.001,0.408,0.006,0.61,0.013C42.483,21.142,42.279,21.137,42.075,21.136"/>
					<path fill="#021071" d="M42.686,21.149c1.149,0.041,2.275,0.167,3.372,0.375C44.96,21.316,43.834,21.189,42.686,21.149"/>
					<path fill="#021075" d="M46.057,21.524c1.189,0.225,2.345,0.545,3.457,0.951C48.402,22.069,47.247,21.75,46.057,21.524"/>
					<path fill="#021179" d="M49.514,22.476c1.417,0.517,2.765,1.174,4.025,1.954C52.279,23.65,50.931,22.993,49.514,22.476"/>
					<path fill="#03117D" d="M53.539,24.43c3.87,2.396,6.92,5.949,8.647,10.162C60.459,30.378,57.409,26.825,53.539,24.43"/>
					<path fill="#021179" d="M62.186,34.592c0.539,1.315,0.949,2.695,1.215,4.124C63.135,37.287,62.725,35.907,62.186,34.592"/>
					<path fill="#021075" d="M63.401,38.716c0.208,1.118,0.327,2.266,0.351,3.437C63.728,40.981,63.608,39.833,63.401,38.716"/>
					<path fill="#021071" d="M63.752,42.152c0.004,0.194,0.005,0.388,0.004,0.583C63.757,42.541,63.756,42.346,63.752,42.152"/>
				</g>
			</g>
			<g>
				<path fill="#0317A9" d="M42.075,21.136c12.051,0.099,21.762,9.756,21.681,21.6c-0.071,11.779-9.808,21.259-21.781,21.259
					c-0.057,0-0.113,0-0.169-0.001c-12.042-0.09-21.744-9.765-21.672-21.6c0-0.091,0.001-0.183,0.003-0.274
					c0.002-0.105,0.004-0.19,0.007-0.274c0.003-0.103,0.007-0.186,0.011-0.271c0.005-0.108,0.009-0.191,0.014-0.275
					c0.006-0.099,0.011-0.186,0.018-0.272c0.007-0.098,0.014-0.186,0.021-0.271c0.008-0.097,0.016-0.183,0.024-0.269
					c0.105-1.084,0.29-2.133,0.548-3.152c0.031-0.121,0.048-0.188,0.065-0.253c0.033-0.121,0.049-0.179,0.065-0.237
					c0.041-0.145,0.055-0.193,0.069-0.241c0.083-0.277,0.097-0.321,0.11-0.366c0.05-0.158,0.064-0.201,0.079-0.246
					c0.049-0.148,0.065-0.199,0.083-0.249c0.045-0.132,0.066-0.192,0.087-0.25c0.036-0.101,0.061-0.17,0.086-0.24
					c0.972-2.646,2.458-5.045,4.337-7.085c3.985-4.325,9.745-7.035,16.145-7.035C41.962,21.135,42.019,21.135,42.075,21.136z"/>
			</g>
			<g>
				<path fill="#030E64" d="M57.654,57.459c0.128-0.13,0.254-0.262,0.378-0.395l-1.908,2.052c-0.208,0.223-0.423,0.441-0.642,0.655
					c-0.043,0.042-0.085,0.085-0.128,0.127c-0.083,0.08-0.167,0.157-0.25,0.236c-0.05,0.047-0.099,0.095-0.15,0.141
					c-0.088,0.081-0.179,0.161-0.269,0.241c-0.046,0.042-0.092,0.084-0.14,0.125c-0.085,0.074-0.172,0.146-0.258,0.22
					c-0.054,0.046-0.107,0.093-0.162,0.138c-0.091,0.075-0.183,0.148-0.275,0.222c-0.051,0.041-0.101,0.083-0.152,0.123
					c-0.099,0.078-0.2,0.155-0.3,0.231c-0.045,0.035-0.091,0.07-0.137,0.104c-0.092,0.068-0.185,0.135-0.278,0.203
					c-0.057,0.042-0.113,0.083-0.171,0.125c-0.083,0.059-0.167,0.116-0.251,0.174c-0.068,0.047-0.136,0.095-0.205,0.141
					c-0.088,0.06-0.178,0.117-0.268,0.175c-0.064,0.042-0.128,0.085-0.194,0.126c-0.092,0.059-0.187,0.115-0.28,0.173
					c-0.064,0.04-0.127,0.08-0.191,0.118c-0.084,0.05-0.168,0.099-0.253,0.148c-0.078,0.045-0.155,0.091-0.234,0.136
					c-0.074,0.042-0.149,0.083-0.224,0.124c-0.087,0.048-0.174,0.097-0.262,0.144c-0.08,0.042-0.161,0.084-0.242,0.125
					c-0.084,0.043-0.167,0.087-0.252,0.13c-0.088,0.044-0.177,0.086-0.265,0.129c-0.078,0.038-0.156,0.076-0.234,0.113
					c-0.094,0.044-0.188,0.086-0.283,0.128c-0.076,0.034-0.151,0.069-0.227,0.103c-0.089,0.04-0.18,0.077-0.271,0.115
					c-0.083,0.035-0.167,0.071-0.251,0.105c-0.085,0.035-0.172,0.068-0.258,0.102c-0.088,0.035-0.176,0.07-0.264,0.103
					c-0.094,0.036-0.189,0.069-0.284,0.104c-0.08,0.029-0.161,0.059-0.242,0.087c-0.097,0.034-0.195,0.066-0.292,0.099
					c-0.082,0.027-0.164,0.055-0.247,0.082c-0.097,0.031-0.196,0.061-0.293,0.09c-0.083,0.025-0.165,0.051-0.248,0.075
					c-0.094,0.027-0.188,0.053-0.282,0.079c-0.091,0.025-0.182,0.051-0.273,0.075c-0.092,0.024-0.185,0.047-0.278,0.071
					c-0.09,0.022-0.18,0.045-0.271,0.067c-0.099,0.024-0.199,0.045-0.299,0.067c-0.087,0.02-0.174,0.039-0.261,0.058
					c-0.097,0.02-0.194,0.039-0.292,0.058c-0.092,0.018-0.184,0.037-0.277,0.054c-0.097,0.018-0.194,0.034-0.292,0.05
					c-0.091,0.016-0.183,0.032-0.274,0.046c-0.1,0.016-0.201,0.029-0.301,0.043c-0.092,0.013-0.184,0.026-0.276,0.039
					c-0.101,0.013-0.202,0.024-0.302,0.036c-0.091,0.01-0.183,0.021-0.274,0.031c-0.102,0.01-0.205,0.019-0.308,0.028
					c-0.093,0.008-0.187,0.017-0.28,0.024c-0.099,0.008-0.199,0.013-0.298,0.02c-0.097,0.006-0.194,0.013-0.292,0.018
					c-0.098,0.004-0.196,0.008-0.295,0.011c-0.1,0.003-0.199,0.007-0.299,0.01s-0.2,0.003-0.3,0.004
					c-0.125,0.001-0.25,0.003-0.376,0.002c-0.375-0.003-0.749-0.016-1.12-0.037c-0.103-0.006-0.204-0.018-0.306-0.025
					c-0.265-0.019-0.53-0.037-0.792-0.065c-0.176-0.019-0.35-0.046-0.525-0.069c-0.188-0.025-0.376-0.045-0.562-0.075
					c-0.157-0.025-0.312-0.057-0.468-0.085c-0.202-0.036-0.404-0.069-0.604-0.111c-0.149-0.031-0.294-0.069-0.442-0.103
					c-0.203-0.047-0.407-0.091-0.607-0.143c-0.156-0.041-0.31-0.089-0.465-0.133c-0.188-0.053-0.378-0.104-0.564-0.162
					c-0.154-0.048-0.304-0.103-0.456-0.154c-0.185-0.062-0.371-0.122-0.553-0.188c-0.153-0.056-0.304-0.119-0.455-0.179
					c-0.176-0.07-0.354-0.136-0.528-0.209c-0.152-0.064-0.299-0.135-0.449-0.202c-0.171-0.077-0.344-0.151-0.513-0.232
					c-0.149-0.072-0.294-0.15-0.442-0.225c-0.164-0.083-0.33-0.165-0.491-0.252c-0.149-0.081-0.294-0.167-0.441-0.251
					c-0.156-0.089-0.313-0.176-0.466-0.268c-0.143-0.086-0.281-0.178-0.421-0.267c-0.153-0.098-0.309-0.193-0.459-0.294
					c-0.137-0.092-0.271-0.19-0.405-0.285c-0.148-0.104-0.297-0.206-0.442-0.314c-0.133-0.099-0.263-0.203-0.394-0.305
					c-0.143-0.111-0.287-0.22-0.427-0.334c-0.125-0.103-0.246-0.209-0.368-0.314c-0.14-0.12-0.281-0.238-0.417-0.361
					c-0.122-0.109-0.239-0.224-0.358-0.336c-0.132-0.124-0.265-0.246-0.393-0.374c-0.119-0.117-0.232-0.239-0.348-0.359
					c-0.124-0.128-0.249-0.254-0.369-0.385c-0.114-0.125-0.224-0.253-0.334-0.38c-0.116-0.132-0.233-0.262-0.345-0.396
					c-0.109-0.131-0.212-0.265-0.318-0.398c-0.108-0.136-0.219-0.271-0.324-0.41c-0.103-0.136-0.2-0.275-0.299-0.413
					c-0.102-0.142-0.206-0.283-0.305-0.427c-0.095-0.139-0.185-0.282-0.277-0.424c-0.096-0.148-0.193-0.294-0.285-0.444
					c-0.089-0.145-0.172-0.293-0.258-0.439c-0.088-0.151-0.178-0.302-0.262-0.456c-0.083-0.152-0.162-0.307-0.242-0.461
					c-0.079-0.152-0.16-0.304-0.235-0.458c-0.078-0.159-0.15-0.321-0.224-0.482c-0.07-0.154-0.143-0.308-0.209-0.464
					c-0.068-0.159-0.131-0.321-0.196-0.483c-0.065-0.164-0.132-0.326-0.193-0.492c-0.059-0.159-0.112-0.32-0.167-0.481
					c-0.058-0.169-0.118-0.338-0.172-0.509c-0.052-0.167-0.099-0.335-0.147-0.504s-0.099-0.336-0.143-0.507
					c-0.044-0.172-0.083-0.346-0.124-0.519c-0.04-0.171-0.082-0.341-0.117-0.514c-0.036-0.173-0.066-0.349-0.098-0.524
					c-0.032-0.176-0.065-0.351-0.092-0.528c-0.027-0.176-0.049-0.353-0.071-0.53c-0.023-0.178-0.047-0.356-0.066-0.536
					c-0.019-0.181-0.031-0.364-0.045-0.546c-0.014-0.178-0.029-0.356-0.038-0.535c-0.009-0.183-0.013-0.368-0.018-0.552
					c-0.005-0.229-0.014-0.457-0.013-0.687c0.027-5.535,2.196-10.557,5.724-14.328l1.811-1.948
					c-0.079,0.085-0.152,0.174-0.229,0.261c-0.129,0.145-0.259,0.29-0.385,0.438c-0.1,0.118-0.195,0.238-0.292,0.358
					c-0.112,0.139-0.225,0.278-0.334,0.419c-0.1,0.13-0.196,0.262-0.293,0.395c-0.1,0.136-0.2,0.272-0.296,0.412
					c-0.097,0.139-0.191,0.28-0.285,0.421c-0.091,0.138-0.181,0.276-0.27,0.416c-0.09,0.144-0.178,0.289-0.265,0.434
					c-0.086,0.145-0.171,0.29-0.253,0.437c-0.082,0.145-0.162,0.29-0.24,0.437c-0.082,0.152-0.16,0.306-0.238,0.461
					c-0.073,0.145-0.145,0.291-0.215,0.438c-0.078,0.163-0.151,0.328-0.224,0.493c-0.063,0.143-0.126,0.285-0.187,0.429
					c-0.074,0.177-0.143,0.355-0.212,0.534c-0.039,0.101-0.082,0.199-0.119,0.3c-0.027,0.072-0.052,0.142-0.077,0.212
					c-0.032,0.089-0.052,0.148-0.072,0.207c-0.042,0.124-0.059,0.174-0.076,0.225c-0.047,0.142-0.061,0.186-0.075,0.23
					c-0.05,0.158-0.063,0.202-0.077,0.247c-0.045,0.152-0.058,0.193-0.069,0.232c-0.014,0.048-0.028,0.096-0.042,0.144
					c-0.043,0.155-0.06,0.213-0.075,0.271c-0.035,0.128-0.052,0.194-0.068,0.26c-0.032,0.126-0.043,0.181-0.056,0.234
					c-0.059,0.242-0.115,0.485-0.166,0.73c-0.02,0.099-0.039,0.199-0.058,0.298c-0.039,0.205-0.076,0.411-0.109,0.618
					c-0.018,0.107-0.034,0.214-0.05,0.321c-0.031,0.214-0.058,0.429-0.082,0.645c-0.011,0.095-0.024,0.189-0.033,0.285
					c-0.017,0.161-0.025,0.247-0.032,0.333c-0.008,0.097-0.015,0.184-0.021,0.27c-0.007,0.098-0.012,0.185-0.018,0.271
					c-0.008,0.146-0.011,0.204-0.014,0.262c-0.005,0.11-0.008,0.195-0.011,0.279c-0.003,0.102-0.006,0.186-0.007,0.271
					c-0.002,0.112-0.003,0.204-0.004,0.295c-0.072,11.835,9.63,21.51,21.672,21.6c0.063,0,0.127,0.001,0.19,0.001
					c0.08,0,0.159-0.002,0.238-0.003c0.083-0.001,0.166-0.001,0.249-0.003c0.114-0.002,0.228-0.007,0.341-0.011
					c0.086-0.003,0.172-0.006,0.259-0.01c0.109-0.005,0.219-0.012,0.328-0.019c0.086-0.005,0.173-0.011,0.259-0.017
					c0.111-0.008,0.222-0.018,0.333-0.028c0.084-0.007,0.169-0.015,0.253-0.023c0.11-0.011,0.22-0.024,0.331-0.037
					c0.082-0.01,0.164-0.019,0.246-0.029c0.114-0.014,0.227-0.031,0.34-0.047c0.078-0.011,0.157-0.022,0.235-0.034
					c0.109-0.017,0.217-0.035,0.325-0.054c0.085-0.014,0.17-0.028,0.254-0.043c0.102-0.019,0.204-0.039,0.305-0.059
					c0.086-0.017,0.173-0.034,0.259-0.052c0.099-0.021,0.196-0.043,0.294-0.065c0.09-0.02,0.181-0.04,0.271-0.061
					c0.092-0.022,0.183-0.045,0.274-0.068c0.094-0.024,0.188-0.047,0.281-0.072c0.093-0.024,0.185-0.05,0.277-0.076
					c0.089-0.024,0.177-0.049,0.266-0.075c0.101-0.029,0.201-0.061,0.301-0.091c0.079-0.024,0.159-0.048,0.238-0.074
					c0.104-0.034,0.208-0.068,0.311-0.104c0.075-0.025,0.149-0.05,0.224-0.075c0.103-0.036,0.205-0.074,0.308-0.111
					c0.075-0.027,0.15-0.055,0.225-0.083c0.097-0.037,0.193-0.076,0.29-0.114c0.079-0.031,0.159-0.062,0.237-0.094
					c0.092-0.038,0.183-0.077,0.274-0.116c0.081-0.034,0.162-0.068,0.241-0.103c0.091-0.04,0.181-0.081,0.271-0.122
					c0.081-0.037,0.161-0.072,0.241-0.11c0.089-0.042,0.178-0.085,0.266-0.129c0.079-0.038,0.157-0.075,0.235-0.114
					c0.086-0.043,0.171-0.088,0.257-0.133c0.08-0.042,0.16-0.082,0.24-0.125c0.089-0.048,0.178-0.098,0.267-0.146
					c0.071-0.04,0.144-0.078,0.214-0.119c0.088-0.05,0.175-0.102,0.263-0.153c0.074-0.043,0.149-0.086,0.223-0.131
					c0.082-0.049,0.163-0.1,0.244-0.15c0.075-0.046,0.149-0.092,0.223-0.139c0.085-0.054,0.169-0.11,0.253-0.165
					c0.071-0.046,0.142-0.092,0.212-0.139c0.081-0.054,0.16-0.11,0.239-0.165c0.072-0.05,0.145-0.099,0.215-0.149
					c0.074-0.052,0.146-0.106,0.218-0.159c0.077-0.056,0.154-0.111,0.23-0.168c0.08-0.059,0.157-0.12,0.235-0.181
					c0.065-0.05,0.132-0.1,0.197-0.151c0.094-0.074,0.186-0.149,0.279-0.225c0.049-0.041,0.1-0.08,0.149-0.121
					c0.085-0.071,0.169-0.144,0.254-0.216c0.056-0.048,0.112-0.095,0.167-0.143c0.069-0.061,0.138-0.124,0.206-0.185
					c0.068-0.062,0.137-0.122,0.205-0.184c0.056-0.051,0.11-0.104,0.166-0.156c0.078-0.074,0.157-0.147,0.235-0.222
					c0.045-0.045,0.09-0.09,0.136-0.135C57.485,57.627,57.571,57.544,57.654,57.459z"/>
			</g>
		</g>
	</g>
</g>
<g>
	<g>
		<g enable-background="new    ">
			<g>
				<path fill="#02083A" d="M87.884,30.11l1.908-2.052L87.884,30.11z"/>
			</g>
			<g enable-background="new    ">
				<defs>
					<path id="SVGID_7_" enable-background="new    " d="M84.067,42.386c0,0.043,0,0.087,0,0.131
						C84.067,42.474,84.067,42.43,84.067,42.386z"/>
				</defs>
				<clipPath id="SVGID_8_">
					<use xlink:href="#SVGID_7_"  overflow="visible"/>
				</clipPath>
				<g clip-path="url(#SVGID_8_)" enable-background="new    ">
					<path fill="#020943" d="M84.067,42.386L84.067,42.386c0,0.044,0,0.087,0,0.131C84.067,42.474,84.067,42.43,84.067,42.386"/>
				</g>
			</g>
			<g enable-background="new    ">
				<defs>
					<path id="SVGID_9_" enable-background="new    " d="M127.7,42.599L127.7,42.599c0-11.776-9.684-21.372-21.69-21.471
						C118.017,21.227,127.7,30.823,127.7,42.599z"/>
				</defs>
				<clipPath id="SVGID_10_">
					<use xlink:href="#SVGID_9_"  overflow="visible"/>
				</clipPath>
				<g clip-path="url(#SVGID_10_)" enable-background="new    ">
					<path fill="#020F6D" d="M106.01,21.128c0.204,0.001,0.407,0.006,0.61,0.013C106.417,21.134,106.214,21.13,106.01,21.128"/>
					<path fill="#021071" d="M106.62,21.142c1.147,0.041,2.272,0.167,3.369,0.375C108.893,21.309,107.768,21.182,106.62,21.142"/>
					<path fill="#021075" d="M109.989,21.517c1.188,0.225,2.344,0.545,3.455,0.951C112.333,22.062,111.178,21.742,109.989,21.517"/>
					<path fill="#021179" d="M113.444,22.467c1.418,0.518,2.766,1.175,4.026,1.956C116.21,23.643,114.862,22.985,113.444,22.467"/>
					<path fill="#03117D" d="M117.471,24.423c3.875,2.398,6.93,5.957,8.658,10.175C124.4,30.38,121.346,26.821,117.471,24.423"/>
					<path fill="#021179" d="M126.129,34.598c0.54,1.317,0.95,2.698,1.216,4.129C127.079,37.296,126.669,35.915,126.129,34.598"/>
					<path fill="#021075" d="M127.345,38.727c0.207,1.11,0.326,2.25,0.351,3.413l0,0C127.671,40.977,127.552,39.837,127.345,38.727"
						/>
					<path fill="#021071" d="M127.695,42.139L127.695,42.139c0.004,0.153,0.005,0.306,0.005,0.46
						C127.7,42.445,127.699,42.292,127.695,42.139"/>
				</g>
			</g>
			<g>
				<path fill="#030E64" d="M121.595,57.453c0.129-0.131,0.256-0.263,0.381-0.396l-1.917,2.052c-0.125,0.134-0.252,0.266-0.38,0.396
					c-0.094,0.096-0.19,0.19-0.286,0.284c-0.034,0.034-0.068,0.068-0.104,0.103c-0.108,0.104-0.219,0.208-0.329,0.311
					c-0.167,0.155-0.267,0.243-0.366,0.331c-0.038,0.034-0.075,0.068-0.114,0.102c-0.103,0.091-0.208,0.179-0.313,0.268
					c-0.035,0.029-0.069,0.06-0.104,0.089c-0.109,0.09-0.22,0.179-0.33,0.267c-0.033,0.026-0.065,0.053-0.098,0.079
					c-0.118,0.093-0.237,0.184-0.356,0.273c-0.196,0.148-0.314,0.233-0.433,0.318c-0.212,0.152-0.333,0.234-0.454,0.317
					c-0.213,0.145-0.335,0.224-0.457,0.303c-0.222,0.142-0.348,0.219-0.473,0.295c-0.222,0.135-0.348,0.208-0.475,0.281
					c-0.224,0.128-0.348,0.195-0.473,0.263c-0.039,0.021-0.077,0.043-0.115,0.063c-0.123,0.065-0.248,0.13-0.372,0.193
					c-0.041,0.021-0.081,0.042-0.122,0.063c-0.126,0.063-0.254,0.124-0.382,0.186c-0.04,0.019-0.079,0.039-0.119,0.058
					c-0.125,0.059-0.252,0.115-0.378,0.172c-0.044,0.021-0.088,0.041-0.133,0.061c-0.125,0.055-0.252,0.107-0.379,0.16
					c-0.045,0.02-0.09,0.039-0.136,0.058c-0.127,0.052-0.256,0.103-0.384,0.151c-0.047,0.019-0.093,0.037-0.14,0.055
					c-0.129,0.049-0.259,0.096-0.389,0.143c-0.047,0.017-0.093,0.034-0.139,0.051c-0.129,0.045-0.258,0.087-0.388,0.13
					c-0.05,0.017-0.1,0.034-0.15,0.05c-0.13,0.042-0.26,0.082-0.391,0.121c-0.05,0.015-0.1,0.03-0.149,0.045
					c-0.129,0.038-0.26,0.074-0.39,0.11c-0.054,0.014-0.106,0.029-0.16,0.044c-0.128,0.033-0.257,0.065-0.386,0.098
					c-0.056,0.014-0.112,0.027-0.168,0.041c-0.131,0.031-0.263,0.061-0.395,0.089c-0.054,0.012-0.108,0.024-0.162,0.036
					c-0.132,0.027-0.264,0.053-0.396,0.078c-0.057,0.011-0.114,0.022-0.172,0.033c-0.128,0.023-0.257,0.045-0.386,0.066
					c-0.062,0.01-0.123,0.021-0.185,0.03c-0.129,0.021-0.26,0.039-0.389,0.057c-0.063,0.009-0.123,0.018-0.186,0.025
					c-0.129,0.017-0.259,0.032-0.389,0.046c-0.064,0.008-0.127,0.016-0.191,0.021c-0.13,0.014-0.26,0.025-0.391,0.036
					c-0.064,0.006-0.128,0.012-0.191,0.017c-0.133,0.01-0.266,0.019-0.398,0.026c-0.063,0.003-0.126,0.008-0.189,0.011
					c-0.131,0.007-0.264,0.012-0.396,0.016c-0.065,0.002-0.131,0.005-0.197,0.007c-0.132,0.003-0.264,0.004-0.396,0.005
					c-0.103,0.001-0.204,0.003-0.307,0.002c-0.188-0.002-0.374-0.006-0.561-0.012c-0.266-0.011-0.412-0.017-0.558-0.025
					c-0.05-0.003-0.099-0.007-0.147-0.01c-0.136-0.009-0.271-0.018-0.406-0.029c-0.059-0.005-0.116-0.011-0.175-0.017
					c-0.124-0.011-0.25-0.022-0.374-0.035c-0.074-0.009-0.148-0.019-0.222-0.026c-0.108-0.013-0.216-0.025-0.323-0.039
					c-0.08-0.011-0.16-0.023-0.24-0.035c-0.101-0.015-0.201-0.028-0.301-0.044c-0.079-0.013-0.158-0.026-0.237-0.04
					c-0.101-0.017-0.2-0.033-0.3-0.051c-0.078-0.015-0.156-0.031-0.233-0.046c-0.1-0.02-0.199-0.038-0.298-0.059
					c-0.08-0.017-0.16-0.035-0.24-0.053c-0.096-0.021-0.192-0.042-0.288-0.064c-0.079-0.019-0.157-0.038-0.235-0.058
					c-0.096-0.023-0.191-0.047-0.287-0.071c-0.081-0.021-0.162-0.044-0.244-0.066c-0.09-0.024-0.182-0.049-0.271-0.074
					c-0.082-0.023-0.162-0.049-0.242-0.072c-0.091-0.027-0.182-0.054-0.271-0.082c-0.082-0.025-0.164-0.053-0.245-0.079
					c-0.087-0.028-0.173-0.056-0.259-0.085c-0.087-0.029-0.173-0.061-0.259-0.091c-0.081-0.029-0.162-0.057-0.242-0.086
					c-0.086-0.031-0.171-0.064-0.257-0.098c-0.08-0.03-0.16-0.06-0.238-0.091c-0.086-0.034-0.17-0.069-0.255-0.104
					c-0.078-0.032-0.157-0.063-0.235-0.097c-0.086-0.036-0.172-0.074-0.258-0.112c-0.074-0.032-0.149-0.064-0.223-0.098
					c-0.088-0.04-0.176-0.081-0.264-0.122c-0.07-0.033-0.143-0.066-0.214-0.1c-0.086-0.042-0.171-0.084-0.256-0.127
					c-0.071-0.035-0.144-0.07-0.216-0.106c-0.083-0.043-0.166-0.087-0.248-0.131c-0.072-0.037-0.145-0.075-0.216-0.113
					c-0.083-0.045-0.165-0.091-0.247-0.137c-0.07-0.039-0.14-0.077-0.209-0.117c-0.084-0.048-0.167-0.097-0.25-0.146
					c-0.066-0.039-0.133-0.077-0.199-0.117c-0.086-0.052-0.17-0.104-0.256-0.157c-0.062-0.039-0.124-0.077-0.186-0.116
					c-0.085-0.054-0.168-0.109-0.252-0.164c-0.062-0.04-0.123-0.08-0.185-0.121c-0.082-0.056-0.163-0.111-0.245-0.168
					c-0.061-0.042-0.123-0.084-0.185-0.128c-0.081-0.057-0.16-0.114-0.239-0.173c-0.061-0.043-0.121-0.086-0.18-0.13
					c-0.082-0.061-0.162-0.122-0.242-0.184c-0.057-0.043-0.114-0.086-0.17-0.13c-0.08-0.063-0.16-0.126-0.238-0.189
					c-0.057-0.044-0.112-0.089-0.168-0.134c-0.08-0.065-0.158-0.132-0.238-0.198c-0.052-0.044-0.104-0.088-0.156-0.133
					c-0.08-0.067-0.158-0.137-0.235-0.206c-0.052-0.045-0.103-0.09-0.154-0.136c-0.077-0.069-0.153-0.14-0.229-0.211
					c-0.051-0.046-0.101-0.092-0.15-0.139c-0.076-0.072-0.15-0.145-0.226-0.217c-0.049-0.048-0.098-0.095-0.146-0.143
					c-0.073-0.073-0.146-0.147-0.22-0.222c-0.047-0.048-0.096-0.097-0.143-0.146c-0.072-0.075-0.145-0.151-0.215-0.228
					c-0.047-0.049-0.094-0.099-0.141-0.149c-0.069-0.075-0.138-0.152-0.206-0.229c-0.046-0.052-0.093-0.104-0.138-0.155
					c-0.069-0.079-0.138-0.158-0.206-0.238c-0.042-0.051-0.086-0.101-0.128-0.151c-0.068-0.081-0.135-0.163-0.201-0.245
					c-0.043-0.053-0.085-0.104-0.127-0.157c-0.064-0.081-0.129-0.163-0.191-0.246c-0.042-0.054-0.084-0.106-0.125-0.161
					c-0.063-0.083-0.125-0.167-0.187-0.251c-0.04-0.055-0.081-0.109-0.12-0.164c-0.061-0.085-0.121-0.17-0.181-0.256
					c-0.039-0.056-0.078-0.111-0.116-0.167c-0.059-0.085-0.115-0.171-0.172-0.257c-0.039-0.058-0.078-0.116-0.115-0.174
					c-0.057-0.087-0.111-0.174-0.166-0.261c-0.037-0.059-0.074-0.118-0.111-0.178c-0.054-0.087-0.105-0.175-0.158-0.263
					c-0.036-0.06-0.072-0.119-0.107-0.18c-0.051-0.089-0.102-0.179-0.152-0.269c-0.035-0.061-0.069-0.122-0.104-0.184
					c-0.049-0.089-0.097-0.178-0.145-0.268c-0.033-0.063-0.067-0.127-0.101-0.191c-0.046-0.088-0.091-0.178-0.136-0.267
					c-0.033-0.065-0.066-0.131-0.098-0.197c-0.045-0.09-0.088-0.182-0.131-0.272c-0.031-0.065-0.062-0.131-0.092-0.196
					c-0.041-0.092-0.083-0.184-0.123-0.276c-0.029-0.066-0.06-0.133-0.088-0.2c-0.039-0.092-0.078-0.184-0.115-0.275
					c-0.029-0.07-0.059-0.14-0.086-0.21c-0.036-0.091-0.071-0.182-0.106-0.272c-0.027-0.071-0.055-0.143-0.081-0.214
					c-0.035-0.093-0.068-0.187-0.102-0.279c-0.025-0.071-0.05-0.142-0.074-0.213c-0.033-0.094-0.064-0.188-0.095-0.283
					c-0.024-0.072-0.047-0.144-0.069-0.216c-0.03-0.094-0.059-0.188-0.088-0.282c-0.021-0.075-0.044-0.149-0.065-0.225
					c-0.026-0.093-0.053-0.186-0.078-0.279c-0.021-0.077-0.042-0.154-0.062-0.231c-0.025-0.093-0.048-0.186-0.071-0.279
					c-0.019-0.079-0.038-0.157-0.057-0.236c-0.022-0.093-0.043-0.187-0.063-0.281c-0.018-0.078-0.034-0.157-0.051-0.235
					c-0.02-0.095-0.039-0.19-0.057-0.286c-0.016-0.08-0.031-0.16-0.045-0.24c-0.018-0.094-0.033-0.188-0.049-0.283
					c-0.014-0.082-0.027-0.163-0.041-0.245c-0.014-0.094-0.027-0.188-0.041-0.283c-0.012-0.083-0.023-0.167-0.034-0.25
					c-0.012-0.094-0.023-0.189-0.034-0.284c-0.01-0.084-0.02-0.168-0.027-0.252c-0.01-0.095-0.02-0.189-0.027-0.284
					c-0.008-0.085-0.016-0.17-0.021-0.255c-0.008-0.096-0.014-0.193-0.021-0.289c-0.005-0.084-0.011-0.169-0.015-0.254
					c-0.005-0.097-0.009-0.193-0.013-0.29c-0.003-0.086-0.006-0.173-0.009-0.259c-0.002-0.096-0.004-0.191-0.005-0.288
					c-0.001-0.136-0.003-0.272-0.003-0.409c0.027-5.535,2.197-10.557,5.725-14.328l1.908-2.052c-0.118,0.127-0.234,0.255-0.35,0.385
					c-0.037,0.041-0.072,0.082-0.107,0.123c-0.079,0.09-0.158,0.181-0.235,0.272c-0.04,0.048-0.081,0.097-0.121,0.145
					c-0.071,0.086-0.143,0.173-0.213,0.26c-0.041,0.051-0.081,0.102-0.122,0.153c-0.068,0.087-0.137,0.175-0.205,0.264
					c-0.038,0.05-0.076,0.1-0.115,0.151c-0.07,0.094-0.141,0.19-0.211,0.286c-0.031,0.044-0.064,0.088-0.096,0.133
					c-0.078,0.11-0.155,0.22-0.231,0.332c-0.269,0.394-0.462,0.695-0.648,1.001c-0.046,0.075-0.089,0.146-0.13,0.217
					c-0.189,0.328-0.219,0.378-0.248,0.429c-0.189,0.348-0.211,0.386-0.23,0.425c-0.021,0.04-0.043,0.081-0.064,0.121
					c-0.067,0.13-0.092,0.177-0.115,0.225c-0.066,0.132-0.091,0.18-0.114,0.227c-0.059,0.12-0.085,0.175-0.11,0.229
					c-0.053,0.109-0.08,0.169-0.108,0.229c-0.073,0.157-0.135,0.296-0.196,0.436c-0.082,0.193-0.129,0.305-0.176,0.417
					c-0.021,0.051-0.041,0.102-0.061,0.152c-0.036,0.09-0.072,0.18-0.107,0.27c-0.021,0.059-0.045,0.118-0.066,0.177
					c-0.015,0.039-0.03,0.077-0.045,0.116c-0.033,0.093-0.059,0.163-0.084,0.232c-0.031,0.088-0.054,0.153-0.076,0.218
					c-0.037,0.109-0.057,0.168-0.076,0.227c-0.039,0.122-0.057,0.176-0.074,0.23c-0.043,0.136-0.061,0.193-0.078,0.251
					c-0.036,0.119-0.053,0.175-0.069,0.233c-0.039,0.135-0.054,0.188-0.069,0.241c-0.039,0.144-0.051,0.19-0.063,0.236
					c-0.042,0.16-0.054,0.208-0.066,0.255c-0.036,0.149-0.048,0.194-0.059,0.24c-0.014,0.056-0.026,0.112-0.04,0.168
					c-0.038,0.167-0.057,0.257-0.075,0.347c-0.017,0.08-0.035,0.159-0.051,0.239c-0.012,0.057-0.021,0.115-0.032,0.172
					c-0.021,0.109-0.043,0.217-0.063,0.327c-0.021,0.13-0.035,0.209-0.049,0.289c-0.01,0.066-0.018,0.115-0.025,0.163
					c-0.031,0.208-0.042,0.286-0.053,0.364c-0.047,0.371-0.057,0.452-0.065,0.534c-0.038,0.375-0.045,0.45-0.052,0.526
					c-0.029,0.385-0.034,0.465-0.039,0.544c-0.02,0.384-0.022,0.466-0.025,0.547c-0.004,0.151-0.006,0.213-0.008,0.274
					c-0.002,0.116-0.003,0.208-0.004,0.298c-0.072,11.844,9.631,21.51,21.672,21.6c0.064,0.001,0.127,0.001,0.191,0.001
					c0.074,0,0.149-0.002,0.225-0.003c0.09-0.001,0.18-0.002,0.27-0.004c0.107-0.002,0.213-0.006,0.318-0.01
					c0.093-0.003,0.186-0.006,0.278-0.011c0.103-0.005,0.206-0.012,0.31-0.019c0.094-0.005,0.188-0.011,0.281-0.018
					c0.1-0.008,0.199-0.017,0.298-0.025c0.097-0.009,0.194-0.018,0.29-0.027s0.191-0.021,0.287-0.031
					c0.098-0.012,0.195-0.022,0.293-0.035c0.096-0.012,0.19-0.026,0.285-0.039c0.097-0.014,0.193-0.027,0.29-0.042
					c0.093-0.015,0.187-0.031,0.279-0.047c0.098-0.017,0.196-0.032,0.293-0.05c0.091-0.017,0.18-0.035,0.27-0.053
					c0.1-0.019,0.198-0.038,0.297-0.059c0.088-0.019,0.176-0.038,0.264-0.058c0.099-0.022,0.197-0.044,0.295-0.067
					c0.089-0.021,0.178-0.043,0.266-0.065c0.097-0.024,0.192-0.048,0.287-0.073c0.088-0.022,0.175-0.048,0.262-0.071
					c0.097-0.027,0.193-0.054,0.289-0.082c0.085-0.024,0.169-0.051,0.253-0.076c0.097-0.03,0.193-0.059,0.289-0.09
					c0.085-0.027,0.17-0.056,0.255-0.085c0.093-0.031,0.187-0.062,0.279-0.094c0.086-0.03,0.172-0.063,0.257-0.093
					c0.091-0.033,0.183-0.066,0.273-0.101c0.084-0.032,0.167-0.065,0.251-0.099c0.091-0.035,0.183-0.07,0.272-0.107
					c0.082-0.034,0.163-0.068,0.244-0.103c0.091-0.039,0.183-0.077,0.272-0.117c0.083-0.036,0.165-0.073,0.247-0.111
					c0.087-0.039,0.174-0.078,0.261-0.118c0.083-0.04,0.165-0.08,0.248-0.12c0.085-0.042,0.171-0.082,0.255-0.125
					c0.082-0.041,0.163-0.083,0.244-0.125c0.083-0.044,0.167-0.086,0.25-0.131c0.08-0.042,0.159-0.086,0.238-0.13
					c0.083-0.046,0.167-0.091,0.25-0.139c0.078-0.044,0.155-0.09,0.232-0.135c0.082-0.048,0.165-0.096,0.246-0.145
					c0.08-0.048,0.158-0.097,0.237-0.146c0.078-0.049,0.156-0.096,0.233-0.145c0.079-0.051,0.157-0.103,0.235-0.154
					c0.076-0.05,0.153-0.099,0.229-0.149c0.076-0.051,0.149-0.104,0.225-0.155c0.077-0.053,0.154-0.105,0.23-0.159
					c0.075-0.054,0.148-0.107,0.223-0.162c0.074-0.054,0.149-0.107,0.224-0.163c0.072-0.055,0.144-0.11,0.216-0.165
					c0.074-0.058,0.148-0.113,0.223-0.171c0.071-0.057,0.142-0.115,0.213-0.173s0.144-0.114,0.214-0.173s0.139-0.118,0.208-0.178
					c0.071-0.061,0.143-0.119,0.213-0.181c0.059-0.052,0.116-0.104,0.175-0.156c0.079-0.07,0.158-0.141,0.235-0.212
					c0.058-0.052,0.113-0.105,0.169-0.159c0.077-0.072,0.154-0.144,0.23-0.217c0.082-0.079,0.163-0.161,0.244-0.242
					C121.498,57.548,121.548,57.501,121.595,57.453z"/>
			</g>
			<g>
				<path fill="#0317A9" d="M106.01,21.128c12.051,0.099,21.762,9.765,21.69,21.6c-0.081,11.789-9.817,21.258-21.791,21.258
					c-0.057,0-0.113,0-0.17-0.001c-12.041-0.09-21.744-9.756-21.672-21.6c0.001-0.091,0.002-0.182,0.004-0.273
					c0.002-0.108,0.004-0.19,0.008-0.273c0.003-0.107,0.006-0.189,0.01-0.27c0.006-0.116,0.01-0.195,0.014-0.272
					c0.007-0.11,0.012-0.19,0.018-0.269c0.008-0.113,0.014-0.19,0.021-0.268c0.01-0.114,0.017-0.189,0.024-0.265
					c0.012-0.123,0.02-0.2,0.027-0.278c0.012-0.103,0.021-0.185,0.031-0.265c0.014-0.107,0.023-0.187,0.034-0.267
					c0.014-0.101,0.024-0.179,0.036-0.256c0.018-0.116,0.029-0.197,0.043-0.276c0.016-0.096,0.029-0.176,0.043-0.255
					c0.064-0.374,0.134-0.718,0.211-1.058c0.031-0.133,0.044-0.189,0.058-0.245c0.011-0.045,0.022-0.091,0.033-0.137
					c0.038-0.15,0.05-0.198,0.063-0.245c0.042-0.159,0.054-0.206,0.067-0.251c0.041-0.15,0.056-0.203,0.07-0.255
					c0.041-0.141,0.058-0.197,0.075-0.254c0.036-0.119,0.054-0.177,0.071-0.234c0.043-0.133,0.061-0.188,0.078-0.242
					c0.041-0.126,0.061-0.186,0.081-0.245c0.039-0.114,0.062-0.179,0.085-0.243c0.033-0.094,0.059-0.164,0.084-0.233
					c0.202-0.549,0.416-1.067,0.65-1.572c0.037-0.08,0.064-0.14,0.094-0.2c0.049-0.104,0.075-0.158,0.102-0.212
					c0.056-0.113,0.08-0.161,0.104-0.208c0.066-0.132,0.091-0.179,0.115-0.226c0.064-0.124,0.086-0.165,0.107-0.205
					c0.141-0.26,0.165-0.306,0.189-0.351c0.07-0.125,0.1-0.175,0.128-0.226c0.073-0.126,0.106-0.184,0.14-0.242
					c0.063-0.106,0.105-0.178,0.148-0.248c3.803-6.258,10.762-10.438,18.707-10.438C105.897,21.128,105.953,21.128,106.01,21.128z"
					/>
			</g>
			<g enable-background="new    ">
				<defs>
					<path id="SVGID_11_" enable-background="new    " d="M127.7,42.729c-0.081,11.789-9.817,21.258-21.791,21.258l0,0
						C117.883,63.987,127.619,54.517,127.7,42.729z"/>
				</defs>
				<clipPath id="SVGID_12_">
					<use xlink:href="#SVGID_11_"  overflow="visible"/>
				</clipPath>
				<g clip-path="url(#SVGID_12_)" enable-background="new    ">
					<path fill="#021071" d="M127.7,42.729c-0.006,0.895-0.068,1.776-0.183,2.642C127.632,44.505,127.694,43.624,127.7,42.729"/>
					<path fill="#020F6D" d="M127.518,45.37c-0.145,1.102-0.375,2.177-0.685,3.219C127.143,47.547,127.373,46.472,127.518,45.37"/>
					<path fill="#020F69" d="M126.833,48.589c-0.367,1.24-0.846,2.433-1.423,3.568C125.987,51.021,126.466,49.829,126.833,48.589"/>
					<path fill="#020E65" d="M125.41,52.157c-3.578,7.025-10.972,11.83-19.501,11.83l0,0
						C114.438,63.987,121.832,59.182,125.41,52.157"/>
				</g>
			</g>
		</g>
	</g>
</g>
<g>
	<g>
		<g enable-background="new    ">
			<g>
				<path fill="#02083A" d="M87.884,88.866l1.908-2.053L87.884,88.866z"/>
			</g>
			<g enable-background="new    ">
				<defs>
					<path id="SVGID_13_" enable-background="new    " d="M84.068,101.142c-0.001,0.043-0.001,0.088-0.001,0.131
						C84.067,101.229,84.067,101.185,84.068,101.142z"/>
				</defs>
				<clipPath id="SVGID_14_">
					<use xlink:href="#SVGID_13_"  overflow="visible"/>
				</clipPath>
				<g clip-path="url(#SVGID_14_)" enable-background="new    ">
					<path fill="#020943" d="M84.068,101.142L84.068,101.142c-0.001,0.044-0.001,0.088-0.001,0.131
						C84.067,101.229,84.067,101.186,84.068,101.142"/>
				</g>
			</g>
			<g enable-background="new    ">
				<defs>
					<path id="SVGID_15_" enable-background="new    " d="M127.7,101.354L127.7,101.354c0-11.775-9.684-21.372-21.689-21.471
						C118.017,79.982,127.7,89.579,127.7,101.354z"/>
				</defs>
				<clipPath id="SVGID_16_">
					<use xlink:href="#SVGID_15_"  overflow="visible"/>
				</clipPath>
				<g clip-path="url(#SVGID_16_)" enable-background="new    ">
					<path fill="#020F6D" d="M106.011,79.884c0.203,0.002,0.406,0.006,0.609,0.014C106.417,79.89,106.214,79.886,106.011,79.884"/>
					<path fill="#021071" d="M106.62,79.897c1.148,0.04,2.273,0.167,3.369,0.375C108.894,80.064,107.769,79.938,106.62,79.897"/>
					<path fill="#021075" d="M109.989,80.272c1.189,0.225,2.344,0.545,3.455,0.95C112.333,80.817,111.179,80.497,109.989,80.272"/>
					<path fill="#021179" d="M113.444,81.223c1.418,0.518,2.766,1.175,4.027,1.956C116.21,82.397,114.862,81.74,113.444,81.223"/>
					<path fill="#03117D" d="M117.472,83.179c3.875,2.398,6.93,5.957,8.658,10.174C124.401,89.136,121.347,85.577,117.472,83.179"/>
					<path fill="#021179" d="M126.13,93.353c0.539,1.317,0.949,2.699,1.215,4.129C127.079,96.052,126.669,94.67,126.13,93.353"/>
					<path fill="#021075" d="M127.345,97.481c0.207,1.111,0.326,2.251,0.352,3.413l0,0
						C127.671,99.732,127.552,98.593,127.345,97.481"/>
					<path fill="#021071" d="M127.696,100.895L127.696,100.895c0.004,0.153,0.004,0.306,0.004,0.46
						C127.7,101.2,127.7,101.048,127.696,100.895"/>
				</g>
			</g>
			<g>
				<path fill="#030E64" d="M121.595,116.208c0.129-0.131,0.256-0.263,0.381-0.396l-1.916,2.052
					c-0.125,0.134-0.252,0.266-0.381,0.396c-0.094,0.096-0.189,0.19-0.285,0.284c-0.035,0.034-0.068,0.068-0.104,0.103
					c-0.109,0.104-0.219,0.208-0.33,0.311c-0.166,0.155-0.266,0.243-0.365,0.331c-0.039,0.034-0.076,0.068-0.115,0.102
					c-0.102,0.091-0.207,0.179-0.313,0.268c-0.035,0.029-0.068,0.06-0.104,0.089c-0.109,0.09-0.221,0.179-0.33,0.267
					c-0.033,0.026-0.066,0.053-0.098,0.079c-0.119,0.093-0.238,0.184-0.357,0.273c-0.195,0.148-0.314,0.233-0.432,0.318
					c-0.213,0.152-0.334,0.234-0.455,0.317c-0.213,0.145-0.334,0.224-0.457,0.303c-0.221,0.142-0.348,0.219-0.473,0.295
					c-0.221,0.135-0.348,0.208-0.475,0.281c-0.223,0.128-0.348,0.195-0.473,0.263c-0.039,0.021-0.076,0.043-0.115,0.063
					c-0.123,0.065-0.248,0.13-0.371,0.193c-0.041,0.021-0.082,0.042-0.123,0.063c-0.125,0.063-0.254,0.124-0.381,0.186
					c-0.041,0.019-0.08,0.039-0.119,0.058c-0.125,0.059-0.252,0.115-0.379,0.172c-0.043,0.021-0.088,0.041-0.133,0.061
					c-0.125,0.055-0.252,0.107-0.379,0.16c-0.045,0.02-0.09,0.039-0.135,0.058c-0.127,0.052-0.256,0.103-0.385,0.151
					c-0.047,0.019-0.092,0.037-0.139,0.055c-0.129,0.049-0.26,0.096-0.389,0.143c-0.047,0.017-0.094,0.034-0.139,0.051
					c-0.129,0.045-0.258,0.087-0.389,0.13c-0.049,0.017-0.1,0.034-0.15,0.05c-0.129,0.042-0.26,0.082-0.391,0.121
					c-0.049,0.015-0.1,0.03-0.148,0.045c-0.129,0.038-0.26,0.074-0.391,0.11c-0.053,0.014-0.105,0.029-0.16,0.044
					c-0.127,0.033-0.256,0.065-0.385,0.098c-0.057,0.014-0.112,0.027-0.168,0.041c-0.131,0.031-0.264,0.061-0.395,0.089
					c-0.055,0.012-0.108,0.024-0.162,0.036c-0.132,0.027-0.264,0.053-0.396,0.078c-0.057,0.011-0.113,0.022-0.171,0.033
					c-0.128,0.023-0.257,0.045-0.386,0.066c-0.063,0.01-0.123,0.021-0.186,0.03c-0.129,0.021-0.259,0.039-0.389,0.057
					c-0.062,0.009-0.123,0.018-0.185,0.025c-0.13,0.017-0.259,0.032-0.39,0.046c-0.063,0.008-0.127,0.016-0.191,0.021
					c-0.129,0.014-0.26,0.025-0.391,0.036c-0.063,0.006-0.127,0.012-0.191,0.017c-0.132,0.01-0.265,0.019-0.397,0.026
					c-0.063,0.003-0.126,0.008-0.189,0.011c-0.132,0.007-0.265,0.012-0.396,0.016c-0.065,0.002-0.132,0.005-0.198,0.007
					c-0.131,0.003-0.264,0.004-0.396,0.005c-0.102,0.001-0.203,0.003-0.306,0.002c-0.188-0.002-0.374-0.006-0.562-0.012
					c-0.266-0.011-0.412-0.017-0.557-0.025c-0.05-0.003-0.099-0.007-0.148-0.01c-0.135-0.009-0.271-0.018-0.406-0.029
					c-0.059-0.005-0.115-0.011-0.174-0.017c-0.125-0.011-0.25-0.022-0.375-0.035c-0.074-0.009-0.147-0.019-0.221-0.026
					c-0.108-0.013-0.217-0.025-0.323-0.039c-0.081-0.011-0.161-0.023-0.241-0.035c-0.1-0.015-0.2-0.028-0.3-0.044
					c-0.079-0.013-0.158-0.026-0.237-0.04c-0.101-0.017-0.201-0.033-0.301-0.051c-0.078-0.015-0.155-0.031-0.232-0.046
					c-0.1-0.02-0.199-0.038-0.299-0.059c-0.08-0.017-0.16-0.035-0.24-0.053c-0.096-0.021-0.191-0.042-0.287-0.064
					c-0.079-0.019-0.158-0.038-0.236-0.058c-0.096-0.023-0.191-0.047-0.286-0.071c-0.081-0.021-0.163-0.044-0.244-0.066
					c-0.091-0.024-0.183-0.049-0.272-0.074c-0.081-0.023-0.162-0.049-0.242-0.072c-0.09-0.027-0.182-0.054-0.271-0.082
					c-0.082-0.025-0.163-0.053-0.244-0.079c-0.087-0.028-0.174-0.056-0.26-0.085s-0.172-0.061-0.258-0.091
					c-0.082-0.029-0.162-0.057-0.242-0.086c-0.086-0.031-0.172-0.064-0.258-0.098c-0.079-0.03-0.159-0.06-0.238-0.091
					c-0.085-0.034-0.17-0.069-0.254-0.104c-0.078-0.032-0.157-0.063-0.235-0.097c-0.087-0.036-0.173-0.074-0.259-0.112
					c-0.074-0.032-0.148-0.064-0.223-0.098c-0.088-0.04-0.176-0.081-0.263-0.122c-0.071-0.033-0.144-0.066-0.214-0.1
					c-0.086-0.042-0.171-0.084-0.256-0.127c-0.072-0.035-0.145-0.07-0.216-0.106c-0.083-0.043-0.166-0.087-0.249-0.131
					c-0.072-0.037-0.145-0.075-0.215-0.113c-0.084-0.045-0.165-0.091-0.248-0.137c-0.069-0.039-0.139-0.077-0.209-0.117
					c-0.084-0.048-0.166-0.097-0.25-0.146c-0.066-0.039-0.133-0.077-0.198-0.117c-0.086-0.052-0.171-0.104-0.256-0.157
					c-0.062-0.039-0.124-0.077-0.187-0.116c-0.084-0.054-0.168-0.109-0.252-0.164c-0.061-0.04-0.123-0.08-0.184-0.121
					c-0.082-0.056-0.164-0.111-0.245-0.168c-0.062-0.042-0.124-0.084-0.185-0.128c-0.081-0.057-0.16-0.114-0.24-0.173
					c-0.061-0.043-0.12-0.086-0.18-0.13c-0.082-0.061-0.162-0.122-0.242-0.184c-0.057-0.043-0.113-0.086-0.17-0.13
					c-0.08-0.063-0.159-0.126-0.238-0.189c-0.056-0.044-0.111-0.089-0.167-0.134c-0.08-0.065-0.159-0.132-0.238-0.198
					c-0.052-0.044-0.104-0.088-0.157-0.133c-0.079-0.067-0.157-0.137-0.234-0.206c-0.053-0.045-0.104-0.09-0.154-0.136
					c-0.078-0.069-0.154-0.14-0.23-0.211c-0.05-0.046-0.1-0.092-0.15-0.139c-0.076-0.072-0.15-0.145-0.225-0.217
					c-0.049-0.048-0.098-0.095-0.146-0.143c-0.074-0.073-0.146-0.147-0.221-0.222c-0.047-0.048-0.096-0.097-0.143-0.146
					c-0.072-0.075-0.144-0.151-0.215-0.228c-0.047-0.049-0.094-0.099-0.14-0.149c-0.069-0.075-0.138-0.152-0.206-0.229
					c-0.047-0.052-0.093-0.104-0.139-0.155c-0.068-0.079-0.137-0.158-0.205-0.238c-0.043-0.051-0.086-0.101-0.129-0.151
					c-0.067-0.081-0.135-0.163-0.201-0.245c-0.042-0.053-0.084-0.104-0.127-0.157c-0.064-0.081-0.128-0.163-0.191-0.246
					c-0.041-0.054-0.083-0.106-0.124-0.161c-0.063-0.083-0.125-0.167-0.187-0.251c-0.041-0.055-0.081-0.109-0.121-0.164
					c-0.061-0.085-0.12-0.17-0.18-0.256c-0.039-0.056-0.078-0.111-0.117-0.167c-0.058-0.085-0.115-0.171-0.172-0.257
					c-0.039-0.058-0.077-0.116-0.115-0.174c-0.056-0.087-0.111-0.174-0.166-0.261c-0.037-0.059-0.074-0.118-0.111-0.178
					c-0.053-0.087-0.105-0.175-0.158-0.263c-0.035-0.06-0.071-0.119-0.106-0.18c-0.052-0.089-0.103-0.179-0.153-0.269
					c-0.034-0.061-0.068-0.122-0.104-0.184c-0.049-0.089-0.096-0.178-0.144-0.268c-0.034-0.063-0.067-0.127-0.101-0.191
					c-0.047-0.088-0.092-0.178-0.137-0.267c-0.033-0.065-0.065-0.131-0.098-0.197c-0.044-0.09-0.088-0.182-0.131-0.272
					c-0.03-0.065-0.061-0.131-0.091-0.196c-0.042-0.092-0.083-0.184-0.124-0.276c-0.029-0.066-0.059-0.133-0.088-0.2
					c-0.039-0.092-0.077-0.184-0.115-0.275c-0.029-0.07-0.058-0.14-0.086-0.21c-0.035-0.091-0.07-0.182-0.105-0.272
					c-0.027-0.071-0.055-0.143-0.082-0.214c-0.034-0.093-0.068-0.187-0.101-0.279c-0.025-0.071-0.05-0.142-0.075-0.213
					c-0.032-0.095-0.063-0.189-0.094-0.283c-0.024-0.072-0.047-0.145-0.07-0.217c-0.029-0.094-0.059-0.188-0.087-0.281
					c-0.022-0.075-0.044-0.15-0.065-0.225c-0.027-0.094-0.053-0.187-0.078-0.279c-0.021-0.077-0.043-0.154-0.063-0.231
					c-0.024-0.093-0.047-0.186-0.07-0.278c-0.02-0.079-0.039-0.157-0.057-0.236c-0.022-0.094-0.043-0.188-0.064-0.281
					c-0.018-0.078-0.033-0.156-0.051-0.235c-0.02-0.095-0.038-0.19-0.057-0.286c-0.016-0.08-0.03-0.159-0.045-0.239
					c-0.018-0.095-0.033-0.188-0.049-0.283c-0.014-0.081-0.027-0.163-0.04-0.245c-0.015-0.094-0.028-0.188-0.042-0.283
					c-0.012-0.083-0.022-0.166-0.033-0.25c-0.012-0.094-0.023-0.189-0.035-0.284c-0.01-0.084-0.019-0.168-0.027-0.252
					c-0.01-0.095-0.019-0.189-0.027-0.284c-0.008-0.085-0.015-0.17-0.021-0.255c-0.007-0.097-0.014-0.192-0.02-0.289
					c-0.006-0.085-0.011-0.169-0.016-0.254c-0.004-0.097-0.008-0.193-0.012-0.29c-0.004-0.086-0.006-0.173-0.009-0.26
					c-0.003-0.096-0.005-0.191-0.005-0.287c-0.002-0.136-0.004-0.271-0.003-0.408c0.026-5.535,2.196-10.558,5.724-14.328
					l1.908-2.053c-0.117,0.127-0.234,0.256-0.35,0.385c-0.036,0.041-0.071,0.082-0.107,0.123c-0.078,0.09-0.157,0.181-0.234,0.271
					c-0.041,0.049-0.081,0.098-0.121,0.146c-0.072,0.086-0.143,0.173-0.213,0.26c-0.041,0.051-0.082,0.103-0.123,0.153
					c-0.068,0.087-0.137,0.175-0.205,0.264c-0.037,0.05-0.076,0.1-0.114,0.15c-0.071,0.095-0.142,0.19-0.211,0.286
					c-0.032,0.044-0.064,0.089-0.097,0.133c-0.078,0.11-0.154,0.22-0.23,0.331c-0.27,0.395-0.463,0.695-0.648,1.002
					c-0.046,0.074-0.089,0.146-0.131,0.217c-0.189,0.327-0.219,0.378-0.247,0.429c-0.19,0.349-0.211,0.386-0.231,0.425
					c-0.021,0.04-0.043,0.08-0.064,0.121c-0.066,0.131-0.092,0.178-0.115,0.225c-0.066,0.132-0.09,0.18-0.113,0.227
					c-0.059,0.121-0.086,0.176-0.111,0.229c-0.052,0.109-0.08,0.169-0.107,0.229c-0.073,0.157-0.135,0.297-0.196,0.436
					c-0.083,0.193-0.13,0.305-0.177,0.418c-0.02,0.051-0.04,0.102-0.061,0.151c-0.035,0.09-0.072,0.18-0.106,0.271
					c-0.022,0.059-0.045,0.117-0.067,0.177c-0.014,0.039-0.029,0.077-0.044,0.116c-0.034,0.093-0.06,0.162-0.084,0.232
					c-0.032,0.088-0.054,0.152-0.076,0.218c-0.037,0.108-0.058,0.168-0.077,0.228c-0.039,0.121-0.057,0.176-0.074,0.23
					c-0.043,0.135-0.061,0.193-0.078,0.25c-0.035,0.119-0.053,0.176-0.068,0.233c-0.039,0.136-0.055,0.188-0.069,0.241
					c-0.039,0.143-0.052,0.189-0.063,0.236c-0.043,0.16-0.055,0.207-0.066,0.254c-0.037,0.149-0.049,0.195-0.059,0.24
					c-0.014,0.057-0.027,0.112-0.04,0.168c-0.038,0.166-0.057,0.257-0.075,0.347c-0.018,0.08-0.035,0.159-0.051,0.239
					c-0.012,0.057-0.021,0.114-0.033,0.172c-0.021,0.108-0.042,0.217-0.062,0.326c-0.022,0.131-0.036,0.209-0.049,0.289
					c-0.011,0.065-0.019,0.114-0.025,0.162c-0.031,0.209-0.042,0.287-0.054,0.365c-0.047,0.371-0.057,0.451-0.064,0.533
					c-0.039,0.375-0.045,0.45-0.052,0.525c-0.03,0.386-0.034,0.465-0.04,0.545c-0.02,0.385-0.021,0.466-0.024,0.547
					c-0.005,0.151-0.007,0.213-0.008,0.273c-0.003,0.117-0.003,0.208-0.004,0.299c-0.072,11.844,9.63,21.51,21.672,21.6
					c0.063,0.001,0.127,0.001,0.19,0.001c0.075,0,0.15-0.002,0.225-0.003c0.09-0.001,0.181-0.002,0.271-0.004
					c0.106-0.002,0.212-0.006,0.317-0.01c0.094-0.003,0.186-0.006,0.279-0.011c0.103-0.005,0.205-0.012,0.309-0.019
					c0.094-0.005,0.188-0.011,0.281-0.018c0.1-0.008,0.199-0.017,0.299-0.025c0.096-0.009,0.193-0.018,0.289-0.027
					s0.191-0.021,0.287-0.031c0.098-0.012,0.196-0.022,0.294-0.035c0.095-0.012,0.19-0.026,0.284-0.039
					c0.098-0.014,0.194-0.027,0.291-0.042c0.093-0.015,0.186-0.031,0.279-0.047c0.098-0.017,0.195-0.032,0.293-0.05
					c0.09-0.017,0.18-0.035,0.27-0.053c0.1-0.019,0.197-0.038,0.297-0.059c0.088-0.019,0.176-0.038,0.264-0.058
					c0.098-0.022,0.197-0.044,0.295-0.067c0.088-0.021,0.178-0.043,0.266-0.065c0.096-0.024,0.191-0.048,0.287-0.073
					c0.088-0.022,0.174-0.048,0.262-0.071c0.096-0.027,0.193-0.054,0.289-0.082c0.084-0.024,0.168-0.051,0.252-0.076
					c0.098-0.03,0.193-0.059,0.289-0.09c0.086-0.027,0.17-0.056,0.256-0.085c0.092-0.031,0.186-0.062,0.279-0.094
					c0.086-0.03,0.172-0.063,0.256-0.093c0.092-0.033,0.184-0.066,0.273-0.101c0.084-0.032,0.168-0.065,0.252-0.099
					c0.09-0.035,0.182-0.07,0.271-0.107c0.082-0.034,0.164-0.068,0.244-0.103c0.092-0.039,0.184-0.077,0.273-0.117
					c0.082-0.036,0.164-0.073,0.246-0.111c0.088-0.039,0.174-0.078,0.262-0.118c0.082-0.04,0.164-0.08,0.248-0.12
					c0.084-0.042,0.17-0.082,0.254-0.125c0.082-0.041,0.164-0.083,0.244-0.125c0.084-0.044,0.168-0.086,0.25-0.131
					c0.08-0.042,0.16-0.086,0.238-0.13c0.084-0.046,0.168-0.091,0.25-0.139c0.078-0.044,0.156-0.09,0.232-0.135
					c0.082-0.048,0.166-0.096,0.246-0.145c0.08-0.048,0.158-0.097,0.238-0.146c0.078-0.049,0.156-0.096,0.232-0.145
					c0.08-0.051,0.158-0.103,0.236-0.154c0.076-0.05,0.152-0.099,0.229-0.149s0.148-0.104,0.225-0.155
					c0.076-0.053,0.154-0.105,0.23-0.159c0.074-0.054,0.148-0.107,0.223-0.162c0.074-0.054,0.148-0.107,0.223-0.163
					c0.072-0.055,0.145-0.11,0.217-0.165c0.074-0.058,0.148-0.113,0.223-0.171c0.07-0.057,0.141-0.115,0.213-0.173
					c0.07-0.058,0.143-0.114,0.213-0.173s0.139-0.118,0.209-0.178c0.07-0.061,0.143-0.119,0.213-0.181
					c0.059-0.052,0.115-0.104,0.174-0.156c0.08-0.07,0.158-0.141,0.236-0.212c0.057-0.052,0.113-0.105,0.168-0.159
					c0.078-0.072,0.154-0.144,0.23-0.217c0.082-0.079,0.164-0.161,0.244-0.242C121.499,116.304,121.548,116.257,121.595,116.208z"/>
			</g>
			<g>
				<path fill="#0317A9" d="M106.011,79.884c12.051,0.1,21.762,9.766,21.689,21.6c-0.08,11.789-9.816,21.259-21.79,21.259
					c-0.057,0-0.113,0-0.17-0.001c-12.042-0.09-21.744-9.756-21.672-21.6c0.001-0.091,0.001-0.182,0.003-0.273
					c0.003-0.107,0.005-0.189,0.008-0.272c0.004-0.107,0.006-0.188,0.01-0.271c0.006-0.115,0.01-0.194,0.015-0.271
					c0.007-0.11,0.012-0.191,0.017-0.27c0.009-0.113,0.015-0.19,0.021-0.268c0.01-0.114,0.016-0.189,0.023-0.266
					c0.012-0.123,0.02-0.199,0.028-0.277c0.011-0.103,0.021-0.185,0.03-0.266c0.014-0.106,0.023-0.187,0.035-0.267
					c0.014-0.101,0.024-0.179,0.035-0.257c0.018-0.115,0.03-0.196,0.043-0.275c0.016-0.097,0.029-0.177,0.043-0.256
					c0.064-0.373,0.135-0.718,0.211-1.058c0.031-0.134,0.045-0.188,0.059-0.245c0.01-0.045,0.021-0.091,0.033-0.137
					c0.037-0.15,0.049-0.197,0.063-0.245c0.041-0.159,0.054-0.206,0.066-0.251c0.041-0.15,0.057-0.203,0.071-0.256
					c0.04-0.141,0.058-0.197,0.075-0.254c0.035-0.119,0.053-0.178,0.071-0.234c0.042-0.133,0.06-0.188,0.077-0.242
					c0.041-0.126,0.062-0.186,0.082-0.244c0.039-0.115,0.061-0.18,0.084-0.244c0.033-0.094,0.059-0.163,0.084-0.232
					c0.203-0.549,0.417-1.066,0.65-1.572c0.037-0.08,0.065-0.14,0.094-0.199c0.049-0.104,0.076-0.158,0.102-0.213
					c0.057-0.113,0.08-0.161,0.104-0.209c0.066-0.131,0.092-0.178,0.115-0.225c0.064-0.125,0.086-0.165,0.107-0.205
					c0.141-0.26,0.166-0.307,0.19-0.352c0.069-0.124,0.099-0.175,0.128-0.225c0.072-0.127,0.105-0.185,0.14-0.242
					c0.063-0.106,0.105-0.178,0.148-0.248c3.802-6.258,10.761-10.438,18.706-10.438C105.897,79.884,105.954,79.884,106.011,79.884z"
					/>
			</g>
			<g enable-background="new    ">
				<defs>
					<path id="SVGID_17_" enable-background="new    " d="M127.7,101.483c-0.08,11.789-9.816,21.259-21.79,21.259l0,0
						C117.884,122.742,127.62,113.272,127.7,101.483z"/>
				</defs>
				<clipPath id="SVGID_18_">
					<use xlink:href="#SVGID_17_"  overflow="visible"/>
				</clipPath>
				<g clip-path="url(#SVGID_18_)" enable-background="new    ">
					<path fill="#021071" d="M127.7,101.483c-0.006,0.896-0.068,1.777-0.182,2.643C127.632,103.261,127.694,102.379,127.7,101.483"
						/>
					<path fill="#020F6D" d="M127.519,104.126c-0.145,1.102-0.375,2.176-0.686,3.219
						C127.144,106.302,127.374,105.228,127.519,104.126"/>
					<path fill="#020F69" d="M126.833,107.345c-0.367,1.239-0.846,2.432-1.422,3.567
						C125.987,109.776,126.466,108.584,126.833,107.345"/>
					<path fill="#020E65" d="M125.411,110.912c-3.578,7.025-10.973,11.83-19.501,11.83l0,0
						C114.438,122.742,121.833,117.938,125.411,110.912"/>
				</g>
			</g>
		</g>
	</g>
</g>
<g>
	<g>
		<g enable-background="new    ">
			<g>
				<path fill="#02083A" d="M23.95,88.865l1.908-2.052L23.95,88.865z"/>
			</g>
			<g enable-background="new    ">
				<defs>
					<path id="SVGID_19_" enable-background="new    " d="M20.134,101.142c0,0.043,0,0.087,0,0.131
						C20.134,101.229,20.134,101.185,20.134,101.142z"/>
				</defs>
				<clipPath id="SVGID_20_">
					<use xlink:href="#SVGID_19_"  overflow="visible"/>
				</clipPath>
				<g clip-path="url(#SVGID_20_)" enable-background="new    ">
					<path fill="#020943" d="M20.134,101.142L20.134,101.142c0,0.043,0,0.087,0,0.131C20.134,101.229,20.134,101.185,20.134,101.142
						"/>
				</g>
			</g>
			<g enable-background="new    ">
				<defs>
					<path id="SVGID_21_" enable-background="new    " d="M63.767,101.354L63.767,101.354c0-11.776-9.684-21.373-21.69-21.471
						C54.083,79.981,63.767,89.578,63.767,101.354z"/>
				</defs>
				<clipPath id="SVGID_22_">
					<use xlink:href="#SVGID_21_"  overflow="visible"/>
				</clipPath>
				<g clip-path="url(#SVGID_22_)" enable-background="new    ">
					<path fill="#020F6D" d="M42.076,79.884c0.204,0.001,0.407,0.006,0.61,0.013C42.483,79.89,42.28,79.885,42.076,79.884"/>
					<path fill="#021071" d="M42.687,79.896c1.147,0.04,2.272,0.167,3.369,0.375C44.959,80.063,43.834,79.937,42.687,79.896"/>
					<path fill="#021075" d="M46.055,80.271c1.189,0.226,2.344,0.545,3.456,0.95C48.399,80.816,47.244,80.497,46.055,80.271"/>
					<path fill="#021179" d="M49.511,81.222c1.418,0.518,2.766,1.176,4.026,1.956C52.276,82.397,50.929,81.739,49.511,81.222"/>
					<path fill="#03117D" d="M53.537,83.178c3.875,2.398,6.93,5.957,8.658,10.175C60.467,89.135,57.412,85.576,53.537,83.178"/>
					<path fill="#021179" d="M62.195,93.353c0.54,1.316,0.95,2.698,1.216,4.129C63.146,96.051,62.735,94.669,62.195,93.353"/>
					<path fill="#021075" d="M63.411,97.481c0.207,1.11,0.326,2.25,0.351,3.412l0,0C63.737,99.731,63.618,98.592,63.411,97.481"/>
					<path fill="#021071" d="M63.762,100.894L63.762,100.894c0.004,0.153,0.005,0.307,0.005,0.461
						C63.767,101.2,63.766,101.047,63.762,100.894"/>
				</g>
			</g>
			<g>
				<path fill="#030E64" d="M57.661,116.208c0.129-0.131,0.256-0.264,0.381-0.396l-1.917,2.051c-0.125,0.135-0.252,0.266-0.38,0.396
					c-0.094,0.096-0.19,0.189-0.286,0.283c-0.034,0.035-0.068,0.068-0.104,0.104c-0.108,0.104-0.219,0.207-0.329,0.311
					c-0.167,0.154-0.267,0.242-0.366,0.33c-0.038,0.035-0.075,0.068-0.114,0.102c-0.103,0.092-0.208,0.18-0.313,0.268
					c-0.035,0.029-0.069,0.061-0.104,0.09c-0.109,0.09-0.22,0.178-0.33,0.266c-0.033,0.027-0.065,0.053-0.098,0.08
					c-0.118,0.092-0.237,0.184-0.356,0.273c-0.196,0.148-0.314,0.232-0.433,0.318c-0.212,0.152-0.333,0.234-0.454,0.316
					c-0.213,0.145-0.335,0.225-0.457,0.303c-0.222,0.143-0.348,0.219-0.473,0.295c-0.222,0.135-0.348,0.209-0.475,0.281
					c-0.224,0.129-0.348,0.195-0.473,0.264c-0.039,0.021-0.077,0.043-0.115,0.063c-0.123,0.066-0.248,0.131-0.372,0.193
					c-0.041,0.021-0.081,0.043-0.122,0.063c-0.126,0.064-0.254,0.125-0.382,0.186c-0.04,0.02-0.079,0.039-0.119,0.059
					c-0.125,0.059-0.252,0.115-0.378,0.172c-0.044,0.02-0.088,0.041-0.133,0.061c-0.125,0.055-0.252,0.107-0.379,0.16
					c-0.045,0.02-0.09,0.039-0.136,0.057c-0.127,0.053-0.256,0.104-0.384,0.152c-0.047,0.018-0.093,0.037-0.14,0.055
					c-0.129,0.049-0.259,0.096-0.389,0.143c-0.047,0.016-0.093,0.033-0.139,0.051c-0.129,0.045-0.258,0.086-0.388,0.129
					c-0.05,0.018-0.1,0.035-0.15,0.051c-0.13,0.041-0.26,0.082-0.391,0.121c-0.05,0.014-0.1,0.029-0.149,0.045
					c-0.129,0.037-0.26,0.074-0.39,0.109c-0.053,0.014-0.106,0.029-0.16,0.045c-0.128,0.033-0.257,0.064-0.386,0.098
					c-0.056,0.014-0.112,0.027-0.168,0.041c-0.131,0.031-0.263,0.061-0.395,0.088c-0.054,0.012-0.108,0.025-0.162,0.037
					c-0.131,0.027-0.264,0.053-0.396,0.078c-0.057,0.01-0.114,0.021-0.171,0.033c-0.128,0.023-0.257,0.045-0.386,0.066
					c-0.062,0.01-0.123,0.02-0.185,0.029c-0.129,0.021-0.259,0.039-0.389,0.057c-0.062,0.01-0.123,0.018-0.185,0.025
					c-0.129,0.018-0.259,0.033-0.39,0.047c-0.063,0.008-0.127,0.016-0.191,0.021c-0.13,0.014-0.26,0.025-0.391,0.035
					c-0.064,0.006-0.128,0.012-0.192,0.018c-0.132,0.01-0.265,0.018-0.397,0.025c-0.063,0.004-0.126,0.008-0.189,0.012
					c-0.132,0.006-0.264,0.012-0.396,0.016c-0.066,0.002-0.132,0.004-0.198,0.006c-0.132,0.004-0.264,0.004-0.397,0.006
					c-0.102,0-0.204,0.002-0.306,0.002c-0.188-0.002-0.375-0.006-0.561-0.012c-0.266-0.012-0.412-0.018-0.558-0.025
					c-0.049-0.004-0.098-0.008-0.147-0.01c-0.136-0.01-0.271-0.018-0.407-0.029c-0.058-0.006-0.116-0.012-0.174-0.018
					c-0.125-0.01-0.25-0.021-0.374-0.035c-0.074-0.008-0.148-0.018-0.222-0.025c-0.108-0.014-0.216-0.025-0.323-0.039
					c-0.081-0.012-0.161-0.023-0.241-0.035c-0.101-0.016-0.201-0.029-0.3-0.045c-0.08-0.012-0.158-0.025-0.238-0.039
					c-0.1-0.018-0.2-0.033-0.3-0.051c-0.078-0.016-0.156-0.031-0.233-0.047c-0.1-0.02-0.199-0.037-0.298-0.059
					c-0.081-0.016-0.16-0.035-0.24-0.053c-0.096-0.021-0.192-0.041-0.288-0.064c-0.079-0.018-0.157-0.037-0.235-0.057
					c-0.096-0.023-0.191-0.047-0.287-0.072c-0.082-0.021-0.163-0.043-0.244-0.066c-0.091-0.023-0.182-0.049-0.272-0.074
					c-0.081-0.023-0.162-0.049-0.242-0.072c-0.09-0.027-0.181-0.053-0.271-0.082c-0.082-0.025-0.164-0.053-0.245-0.078
					c-0.086-0.029-0.173-0.057-0.259-0.086c-0.086-0.029-0.172-0.061-0.258-0.09c-0.081-0.029-0.162-0.057-0.242-0.086
					c-0.086-0.031-0.171-0.064-0.257-0.098c-0.08-0.031-0.16-0.061-0.238-0.092c-0.085-0.033-0.17-0.068-0.255-0.104
					c-0.078-0.031-0.157-0.063-0.235-0.096c-0.086-0.037-0.172-0.074-0.259-0.113c-0.074-0.031-0.149-0.064-0.222-0.098
					c-0.088-0.039-0.176-0.08-0.263-0.121c-0.071-0.033-0.143-0.066-0.214-0.1c-0.086-0.043-0.17-0.084-0.256-0.127
					c-0.072-0.035-0.144-0.07-0.215-0.107c-0.083-0.043-0.166-0.086-0.249-0.131c-0.072-0.037-0.145-0.074-0.216-0.113
					c-0.083-0.045-0.165-0.09-0.247-0.137c-0.07-0.039-0.14-0.076-0.209-0.117c-0.084-0.047-0.167-0.096-0.25-0.146
					c-0.066-0.039-0.133-0.076-0.199-0.117c-0.086-0.051-0.171-0.104-0.256-0.156c-0.062-0.039-0.125-0.078-0.186-0.117
					c-0.085-0.053-0.168-0.109-0.252-0.164c-0.062-0.039-0.124-0.08-0.185-0.121c-0.082-0.055-0.163-0.111-0.245-0.168
					c-0.062-0.041-0.124-0.084-0.185-0.127c-0.081-0.057-0.16-0.115-0.24-0.174c-0.06-0.043-0.12-0.086-0.18-0.129
					c-0.082-0.061-0.162-0.123-0.242-0.184c-0.057-0.043-0.114-0.086-0.17-0.131c-0.08-0.063-0.159-0.125-0.238-0.189
					c-0.056-0.043-0.112-0.088-0.167-0.133c-0.08-0.066-0.159-0.133-0.238-0.199c-0.052-0.043-0.105-0.088-0.157-0.133
					c-0.079-0.066-0.157-0.137-0.235-0.205c-0.052-0.045-0.103-0.09-0.154-0.137c-0.077-0.068-0.153-0.139-0.23-0.211
					c-0.05-0.045-0.1-0.092-0.15-0.139c-0.076-0.072-0.151-0.145-0.226-0.217c-0.049-0.047-0.098-0.094-0.146-0.143
					c-0.074-0.072-0.146-0.146-0.22-0.221c-0.047-0.049-0.096-0.098-0.143-0.146c-0.072-0.074-0.144-0.15-0.215-0.227
					c-0.046-0.049-0.093-0.1-0.14-0.15c-0.07-0.074-0.138-0.152-0.207-0.229c-0.046-0.051-0.092-0.104-0.138-0.154
					c-0.069-0.08-0.137-0.158-0.206-0.238c-0.042-0.051-0.086-0.102-0.128-0.152c-0.068-0.08-0.135-0.162-0.201-0.244
					c-0.042-0.053-0.085-0.105-0.127-0.158c-0.064-0.08-0.128-0.162-0.192-0.246c-0.042-0.053-0.083-0.105-0.124-0.16
					c-0.063-0.084-0.125-0.168-0.187-0.252c-0.04-0.055-0.081-0.109-0.12-0.164c-0.061-0.084-0.121-0.17-0.181-0.256
					c-0.039-0.055-0.078-0.111-0.116-0.166c-0.058-0.086-0.115-0.172-0.172-0.258c-0.039-0.057-0.077-0.115-0.115-0.174
					c-0.056-0.086-0.111-0.174-0.166-0.26c-0.037-0.059-0.075-0.119-0.111-0.178c-0.054-0.088-0.106-0.176-0.159-0.264
					c-0.036-0.059-0.071-0.119-0.106-0.18c-0.052-0.088-0.103-0.178-0.153-0.268c-0.035-0.061-0.069-0.123-0.104-0.184
					c-0.049-0.09-0.097-0.178-0.144-0.268c-0.034-0.064-0.068-0.127-0.101-0.191c-0.046-0.088-0.091-0.178-0.136-0.268
					c-0.033-0.064-0.066-0.131-0.098-0.197c-0.044-0.09-0.087-0.182-0.13-0.271c-0.031-0.066-0.062-0.131-0.091-0.197
					c-0.042-0.092-0.083-0.184-0.124-0.275c-0.029-0.066-0.059-0.133-0.087-0.201c-0.04-0.092-0.078-0.184-0.116-0.275
					c-0.029-0.07-0.058-0.139-0.085-0.209c-0.036-0.092-0.071-0.182-0.106-0.273c-0.027-0.07-0.055-0.143-0.081-0.213
					c-0.035-0.094-0.068-0.188-0.101-0.279c-0.025-0.072-0.05-0.143-0.075-0.214c-0.032-0.095-0.063-0.188-0.094-0.283
					c-0.024-0.071-0.047-0.144-0.07-0.216c-0.03-0.094-0.059-0.188-0.087-0.282c-0.022-0.075-0.044-0.149-0.066-0.225
					c-0.027-0.093-0.053-0.187-0.078-0.279c-0.021-0.077-0.042-0.153-0.062-0.231c-0.024-0.092-0.047-0.186-0.071-0.278
					c-0.019-0.079-0.038-0.157-0.057-0.235c-0.022-0.094-0.043-0.188-0.063-0.281c-0.018-0.078-0.034-0.157-0.051-0.236
					c-0.02-0.094-0.039-0.189-0.057-0.285c-0.015-0.08-0.03-0.16-0.045-0.24c-0.017-0.094-0.033-0.188-0.049-0.283
					c-0.014-0.081-0.027-0.162-0.04-0.244c-0.014-0.095-0.028-0.189-0.042-0.283c-0.012-0.084-0.023-0.167-0.034-0.25
					c-0.012-0.095-0.023-0.189-0.034-0.285c-0.01-0.084-0.019-0.168-0.028-0.252c-0.01-0.094-0.019-0.189-0.027-0.283
					c-0.008-0.086-0.015-0.17-0.021-0.256c-0.007-0.096-0.014-0.192-0.021-0.289c-0.005-0.084-0.01-0.168-0.015-0.254
					c-0.005-0.096-0.009-0.193-0.013-0.289c-0.003-0.087-0.006-0.174-0.008-0.26c-0.002-0.096-0.004-0.191-0.005-0.287
					c-0.001-0.137-0.003-0.272-0.002-0.409c0.027-5.535,2.196-10.558,5.724-14.328l1.908-2.052c-0.118,0.127-0.235,0.255-0.35,0.385
					c-0.036,0.04-0.071,0.082-0.107,0.122c-0.079,0.091-0.158,0.181-0.235,0.272c-0.041,0.049-0.081,0.097-0.121,0.145
					c-0.071,0.086-0.143,0.174-0.213,0.26c-0.041,0.051-0.082,0.103-0.122,0.154c-0.069,0.086-0.137,0.174-0.205,0.264
					c-0.038,0.049-0.077,0.1-0.115,0.15c-0.071,0.094-0.141,0.189-0.211,0.285c-0.032,0.045-0.064,0.089-0.096,0.133
					c-0.078,0.11-0.155,0.221-0.231,0.332c-0.269,0.394-0.462,0.695-0.648,1.001c-0.045,0.075-0.088,0.146-0.13,0.217
					c-0.189,0.327-0.218,0.378-0.247,0.429c-0.19,0.349-0.211,0.387-0.231,0.426c-0.021,0.039-0.042,0.08-0.064,0.121
					c-0.067,0.13-0.092,0.177-0.116,0.225c-0.066,0.131-0.09,0.18-0.114,0.227c-0.059,0.12-0.085,0.175-0.111,0.229
					c-0.052,0.109-0.08,0.17-0.108,0.23c-0.073,0.156-0.135,0.296-0.196,0.436c-0.083,0.192-0.13,0.305-0.176,0.417
					c-0.021,0.051-0.041,0.102-0.061,0.151c-0.036,0.09-0.072,0.18-0.106,0.271c-0.022,0.06-0.045,0.118-0.067,0.177
					c-0.014,0.039-0.03,0.078-0.044,0.117c-0.034,0.092-0.06,0.162-0.084,0.232c-0.032,0.088-0.054,0.152-0.076,0.217
					c-0.037,0.109-0.057,0.168-0.077,0.228c-0.04,0.122-0.057,0.177-0.075,0.23c-0.042,0.136-0.06,0.193-0.078,0.251
					c-0.036,0.119-0.053,0.176-0.069,0.232c-0.039,0.136-0.054,0.189-0.069,0.241c-0.039,0.144-0.052,0.19-0.064,0.236
					c-0.042,0.16-0.054,0.208-0.066,0.255c-0.037,0.148-0.048,0.194-0.059,0.24c-0.014,0.056-0.026,0.111-0.04,0.168
					c-0.039,0.166-0.057,0.256-0.076,0.346c-0.017,0.08-0.035,0.16-0.051,0.239c-0.012,0.058-0.021,0.114-0.033,0.172
					c-0.021,0.108-0.042,0.218-0.062,0.327c-0.022,0.13-0.036,0.209-0.049,0.288c-0.011,0.065-0.018,0.114-0.025,0.163
					c-0.031,0.209-0.042,0.286-0.053,0.364c-0.047,0.371-0.057,0.452-0.065,0.534c-0.038,0.375-0.045,0.449-0.051,0.525
					c-0.03,0.385-0.035,0.465-0.04,0.545c-0.02,0.384-0.022,0.465-0.025,0.547c-0.004,0.15-0.006,0.213-0.008,0.273
					c-0.002,0.116-0.003,0.207-0.004,0.299c-0.072,11.844,9.63,21.51,21.672,21.6c0.063,0,0.127,0,0.19,0
					c0.075,0,0.15-0.002,0.225-0.002c0.09-0.002,0.18-0.002,0.27-0.004c0.106-0.002,0.212-0.006,0.318-0.01
					c0.093-0.004,0.186-0.006,0.278-0.012c0.103-0.004,0.206-0.012,0.309-0.018c0.094-0.006,0.188-0.012,0.282-0.018
					c0.1-0.008,0.199-0.018,0.298-0.025c0.097-0.01,0.194-0.018,0.29-0.027c0.096-0.01,0.191-0.021,0.287-0.031
					c0.098-0.012,0.196-0.023,0.294-0.035c0.095-0.012,0.19-0.027,0.285-0.039c0.097-0.014,0.194-0.027,0.29-0.043
					c0.093-0.014,0.186-0.031,0.279-0.047c0.098-0.016,0.196-0.031,0.293-0.049c0.091-0.018,0.18-0.035,0.27-0.053
					c0.1-0.02,0.198-0.039,0.297-0.059c0.088-0.02,0.176-0.039,0.264-0.059c0.099-0.021,0.197-0.043,0.295-0.066
					c0.089-0.021,0.178-0.043,0.266-0.066c0.097-0.023,0.192-0.047,0.287-0.072c0.088-0.023,0.175-0.049,0.262-0.072
					c0.097-0.027,0.193-0.053,0.289-0.082c0.085-0.023,0.169-0.051,0.253-0.076c0.097-0.029,0.193-0.059,0.289-0.09
					c0.085-0.027,0.17-0.055,0.255-0.084c0.093-0.031,0.187-0.063,0.279-0.094c0.086-0.031,0.172-0.063,0.257-0.094
					c0.091-0.033,0.183-0.066,0.273-0.1c0.084-0.033,0.167-0.066,0.251-0.1c0.091-0.035,0.183-0.07,0.272-0.107
					c0.082-0.033,0.163-0.068,0.244-0.102c0.091-0.039,0.183-0.078,0.272-0.117c0.083-0.037,0.165-0.074,0.247-0.111
					c0.087-0.039,0.174-0.078,0.261-0.119c0.083-0.039,0.165-0.08,0.248-0.119c0.085-0.043,0.171-0.082,0.255-0.125
					c0.082-0.041,0.163-0.084,0.244-0.125c0.083-0.045,0.167-0.086,0.25-0.131c0.08-0.043,0.159-0.086,0.238-0.131
					c0.083-0.045,0.167-0.09,0.25-0.139c0.078-0.043,0.155-0.09,0.232-0.135c0.082-0.047,0.165-0.096,0.246-0.145
					c0.08-0.047,0.158-0.096,0.237-0.145c0.078-0.049,0.156-0.096,0.233-0.145c0.079-0.051,0.157-0.104,0.235-0.154
					c0.076-0.051,0.153-0.1,0.229-0.15c0.076-0.051,0.149-0.104,0.225-0.154c0.077-0.053,0.154-0.105,0.23-0.16
					c0.075-0.053,0.148-0.107,0.223-0.162c0.074-0.053,0.149-0.107,0.224-0.162c0.072-0.055,0.144-0.111,0.216-0.166
					c0.074-0.057,0.148-0.113,0.223-0.17c0.071-0.057,0.142-0.115,0.213-0.174c0.071-0.057,0.144-0.113,0.214-0.172
					s0.139-0.119,0.208-0.178c0.071-0.061,0.143-0.119,0.213-0.182c0.059-0.051,0.116-0.104,0.175-0.156
					c0.079-0.07,0.158-0.141,0.235-0.211c0.058-0.053,0.113-0.105,0.169-0.16c0.077-0.072,0.154-0.143,0.23-0.217
					c0.082-0.078,0.163-0.16,0.244-0.242C57.564,116.304,57.614,116.257,57.661,116.208z"/>
			</g>
			<g>
				<path fill="#0317A9" d="M42.076,79.884c12.051,0.099,21.762,9.765,21.69,21.6c-0.081,11.789-9.817,21.258-21.791,21.258
					c-0.057,0-0.113,0-0.17,0c-12.042-0.09-21.744-9.756-21.672-21.6c0-0.092,0.001-0.183,0.003-0.273
					c0.002-0.107,0.004-0.19,0.007-0.273c0.003-0.107,0.006-0.188,0.01-0.27c0.005-0.115,0.009-0.195,0.014-0.272
					c0.006-0.11,0.012-0.19,0.017-0.269c0.008-0.113,0.014-0.191,0.021-0.268c0.01-0.115,0.017-0.189,0.024-0.266
					c0.012-0.123,0.02-0.199,0.028-0.277c0.011-0.104,0.021-0.186,0.031-0.266c0.013-0.107,0.023-0.188,0.034-0.268
					c0.014-0.101,0.025-0.178,0.036-0.256c0.017-0.116,0.03-0.197,0.042-0.276c0.016-0.097,0.029-0.177,0.043-0.255
					c0.065-0.374,0.134-0.719,0.211-1.059c0.031-0.133,0.044-0.188,0.058-0.244c0.011-0.046,0.022-0.092,0.033-0.137
					c0.038-0.15,0.05-0.198,0.063-0.246c0.042-0.158,0.054-0.205,0.067-0.251c0.041-0.149,0.056-0.203,0.071-0.255
					c0.041-0.141,0.057-0.197,0.075-0.255c0.036-0.119,0.054-0.177,0.072-0.233c0.042-0.133,0.06-0.188,0.077-0.242
					c0.042-0.127,0.062-0.186,0.082-0.245c0.039-0.114,0.062-0.179,0.084-0.243c0.033-0.094,0.059-0.164,0.084-0.232
					c0.203-0.55,0.417-1.067,0.65-1.572c0.037-0.08,0.065-0.141,0.094-0.2c0.049-0.104,0.076-0.158,0.102-0.212
					c0.056-0.113,0.08-0.162,0.104-0.209c0.066-0.132,0.091-0.179,0.115-0.226c0.064-0.124,0.085-0.165,0.107-0.204
					c0.141-0.261,0.166-0.307,0.19-0.352c0.07-0.125,0.099-0.176,0.127-0.226c0.073-0.126,0.106-0.185,0.14-0.241
					c0.063-0.107,0.105-0.178,0.148-0.248c3.802-6.259,10.761-10.438,18.706-10.438C41.963,79.883,42.02,79.883,42.076,79.884z"/>
			</g>
			<g enable-background="new    ">
				<defs>
					<path id="SVGID_23_" enable-background="new    " d="M63.767,101.483c-0.081,11.789-9.817,21.258-21.791,21.258l0,0
						C53.949,122.741,63.686,113.272,63.767,101.483z"/>
				</defs>
				<clipPath id="SVGID_24_">
					<use xlink:href="#SVGID_23_"  overflow="visible"/>
				</clipPath>
				<g clip-path="url(#SVGID_24_)" enable-background="new    ">
					<path fill="#021071" d="M63.767,101.483c-0.006,0.895-0.068,1.776-0.183,2.642C63.698,103.26,63.761,102.378,63.767,101.483"/>
					<path fill="#020F6D" d="M63.584,104.125c-0.145,1.102-0.375,2.177-0.685,3.219C63.209,106.302,63.439,105.227,63.584,104.125"
						/>
					<path fill="#020F69" d="M62.899,107.344c-0.367,1.239-0.846,2.433-1.423,3.567C62.054,109.776,62.532,108.583,62.899,107.344"
						/>
					<path fill="#020E65" d="M61.477,110.911c-3.578,7.025-10.972,11.83-19.5,11.83l0,0
						C50.505,122.741,57.898,117.937,61.477,110.911"/>
				</g>
			</g>
		</g>
	</g>
</g>
</svg>
